<?xml version="1.0" standalone="no"?>
<!DOCTYPE svg PUBLIC "-//W3C//DTD SVG 20010904//EN"
 "http://www.w3.org/TR/2001/REC-SVG-20010904/DTD/svg10.dtd">
<svg version="1.0" xmlns="http://www.w3.org/2000/svg"
 width="446.000000pt" height="481.000000pt" viewBox="0 0 446.000000 481.000000"
 preserveAspectRatio="xMidYMid meet">
<metadata>
Created by potrace 1.15, written by Peter Selinger 2001-2017
</metadata>
<g transform="translate(0.000000,481.000000) scale(0.100000,-0.100000)"
fill="#61DAFB" stroke="none">
<path d="M2335 4574 c-86 -12 -200 -39 -285 -66 -58 -19 -114 -31 -145 -30
-53 1 -95 -18 -95 -43 0 -10 -11 -15 -35 -15 -22 0 -38 -6 -41 -15 -8 -19 -33
-20 -40 -1 -9 24 -48 27 -136 10 -184 -35 -478 -153 -563 -227 -23 -19 -52
-37 -65 -39 -23 -3 -25 -7 -28 -70 -3 -64 11 -134 39 -204 12 -31 11 -34 -29
-79 -58 -66 -78 -145 -36 -145 8 0 14 -7 14 -15 0 -8 -7 -15 -15 -15 -17 0
-18 -11 -17 -195 1 -71 -1 -124 -4 -117 -13 28 -24 8 -24 -45 0 -59 23 -123
48 -131 17 -5 16 67 -1 74 -7 2 -13 22 -14 47 0 23 1 36 4 30 2 -7 11 -13 19
-13 32 0 84 -180 84 -292 1 -59 30 -140 79 -216 35 -55 42 -98 14 -87 -10 3
-46 13 -80 21 -100 23 -96 19 -90 84 7 84 0 110 -37 125 -20 8 -126 15 -306
21 -378 11 -407 11 -466 -9 -44 -15 -53 -22 -58 -49 -11 -58 -10 -59 47 -56
45 3 52 6 55 26 3 21 8 22 95 22 51 0 97 -4 104 -8 6 -4 15 -30 18 -58 l7 -51
-68 -17 c-107 -28 -112 -29 -139 -22 -15 4 -27 16 -31 30 -6 25 -41 46 -78 46
-21 0 -24 -6 -30 -61 -3 -34 -6 -93 -6 -132 0 -59 4 -73 25 -99 14 -16 25 -36
25 -44 0 -8 5 -14 10 -14 6 0 10 4 10 10 0 38 188 63 214 28 7 -9 24 -20 39
-23 37 -10 49 -28 58 -87 5 -28 14 -55 21 -60 22 -13 138 -10 138 5 0 9 25 11
99 9 l99 -4 -6 93 -5 92 114 -7 c105 -7 207 -21 216 -30 2 -2 -3 -29 -12 -59
-14 -49 -20 -57 -51 -67 -42 -14 -95 -59 -164 -137 -26 -31 -83 -31 -104 -2
-13 19 -20 20 -53 13 -57 -12 -75 -7 -105 29 l-27 32 -203 4 c-129 2 -228 -1
-270 -9 -66 -11 -68 -13 -68 -41 0 -26 3 -29 33 -29 l32 -1 -32 -14 c-30 -13
-44 -41 -28 -57 3 -3 7 -41 10 -84 5 -104 9 -114 51 -114 22 0 37 -6 40 -15 9
-22 30 -18 48 7 l16 22 0 -22 c0 -12 5 -22 11 -22 8 0 8 -5 -1 -15 -7 -8 -27
-15 -44 -15 -17 0 -44 -10 -60 -23 -29 -23 -29 -24 -16 -76 11 -46 15 -51 34
-45 11 3 34 15 50 26 40 29 156 51 249 49 l77 -3 0 31 c0 36 -22 46 -80 36
-42 -7 -80 7 -80 30 0 26 -50 55 -98 55 -44 0 -44 0 -30 22 9 13 26 24 39 26
13 2 34 14 47 28 13 13 30 24 38 24 13 0 13 -3 0 -22 -9 -12 -16 -30 -16 -40
0 -25 38 -48 71 -41 44 9 77 -5 120 -48 35 -36 44 -40 82 -37 52 4 60 31 10
36 -27 3 -33 7 -33 27 0 18 7 26 25 31 14 3 25 12 25 20 0 8 7 14 15 14 9 0
15 -9 15 -23 0 -38 19 -47 94 -47 53 0 79 5 104 20 50 31 38 80 -20 80 -21 0
-28 -5 -28 -19 0 -11 6 -22 13 -24 6 -3 3 -6 -9 -6 -22 -1 -54 27 -54 47 0 8
22 12 63 12 66 0 83 8 110 52 13 20 27 27 66 33 28 4 55 13 62 21 13 16 44 19
34 4 -4 -6 -25 -20 -48 -31 -50 -26 -59 -37 -52 -66 3 -14 -1 -25 -12 -32 -16
-9 -16 -13 -4 -32 10 -17 10 -24 2 -27 -6 -2 -11 -12 -11 -23 0 -17 -8 -19
-58 -19 -32 0 -63 -5 -70 -12 -16 -16 -15 -55 1 -61 19 -7 -12 -57 -52 -84
-43 -29 -51 -29 -51 1 0 26 -23 56 -43 56 -7 0 -24 -7 -40 -15 -15 -8 -55 -17
-90 -21 -34 -4 -75 -13 -91 -22 -24 -11 -51 -13 -138 -7 l-108 7 0 -64 c0 -34
4 -68 8 -74 4 -6 30 -15 57 -18 28 -4 61 -14 75 -21 l25 -14 -32 -7 c-18 -3
-33 -12 -33 -19 0 -32 119 -48 150 -20 9 8 34 21 56 28 45 16 56 41 22 52 -22
7 -22 7 -3 12 11 2 48 15 82 29 34 13 76 24 95 24 l33 -1 -48 -25 c-26 -13
-47 -29 -47 -34 0 -6 -13 -10 -30 -10 -29 0 -30 -2 -30 -42 -1 -24 -7 -54 -15
-68 -19 -33 -19 -84 0 -100 12 -10 24 -11 50 -3 43 14 203 -8 216 -28 28 -45
-4 -78 -92 -95 -47 -9 -81 -21 -96 -36 -23 -22 -25 -22 -38 -5 -7 9 -15 35
-19 57 -6 41 -19 52 -30 25 -7 -19 -33 -19 -66 -1 l-25 14 28 13 c18 8 27 20
27 35 0 26 -22 32 -130 37 l-65 2 -3 37 c-4 43 -48 88 -88 88 -31 0 -41 -25
-20 -49 23 -26 20 -49 -8 -53 l-24 -3 28 -63 c35 -76 58 -102 71 -81 5 8 9 20
9 27 0 17 38 14 80 -6 55 -27 46 -46 -23 -50 -37 -2 -60 -8 -63 -17 -5 -11 30
-95 40 -95 2 0 17 7 32 15 37 19 88 19 104 0 22 -26 -5 -45 -66 -45 l-54 0 37
-61 c21 -34 43 -63 50 -66 11 -5 361 104 487 151 73 28 123 55 169 93 70 57
304 143 389 143 34 0 46 -7 88 -50 27 -27 65 -82 84 -122 20 -39 41 -77 47
-84 6 -7 6 -15 1 -18 -5 -3 -13 -40 -17 -81 -7 -77 -18 -89 -30 -34 -5 20 -18
37 -36 48 -28 15 -34 28 -53 112 -3 15 -22 41 -41 58 -29 25 -45 31 -81 31
-25 0 -55 5 -66 11 -28 15 -128 2 -128 -16 0 -7 15 -16 32 -20 18 -3 69 -17
113 -31 l80 -25 -3 -43 c-3 -37 0 -47 23 -68 l26 -25 -97 -49 c-54 -27 -107
-50 -119 -51 -12 -1 -40 -11 -63 -23 -30 -16 -49 -20 -76 -14 -29 5 -36 3 -36
-10 0 -9 5 -16 10 -16 11 0 14 -30 3 -31 -5 0 -24 -1 -43 -3 -19 -1 -78 -21
-130 -43 -52 -22 -116 -48 -143 -57 -26 -10 -52 -26 -57 -37 -8 -14 -17 -17
-43 -12 l-32 6 55 -57 c50 -52 58 -57 88 -51 31 6 32 5 32 -27 0 -37 24 -59
175 -161 53 -36 71 -43 73 -32 2 9 -6 24 -19 33 -21 18 -21 19 -4 45 12 19 18
49 19 99 1 63 -1 73 -17 76 -27 6 -67 -36 -67 -70 0 -26 -3 -28 -40 -28 -45 0
-80 27 -80 60 0 11 -6 20 -12 21 -23 1 65 29 187 60 207 52 252 68 429 153
191 93 223 106 211 85 -16 -27 -49 -59 -62 -59 -7 0 -21 -12 -30 -27 -14 -21
-18 -48 -18 -120 1 -51 -1 -93 -3 -93 -10 0 -31 74 -38 128 -3 34 -10 65 -14
67 -19 12 -29 -29 -35 -145 -8 -141 3 -209 36 -217 20 -6 26 -46 11 -71 -11
-16 -31 6 -61 66 -40 79 -53 45 -25 -68 9 -36 19 -96 23 -134 6 -68 6 -69 42
-81 l36 -13 0 32 c0 17 -4 34 -10 37 -5 4 -6 12 -2 19 5 9 17 -8 35 -47 24
-52 32 -61 60 -67 18 -3 35 -4 38 -2 2 3 -6 20 -19 38 l-23 33 27 -24 c32 -29
47 -20 25 16 -14 23 -14 29 0 55 17 36 10 130 -14 165 -8 13 -10 23 -4 23 14
0 13 43 -2 58 -10 10 -10 15 2 22 22 14 53 12 46 -2 -17 -42 -28 -89 -23 -95
4 -3 16 2 27 12 11 10 22 16 25 13 3 -2 17 -63 31 -134 14 -71 32 -139 39
-151 8 -12 36 -37 62 -55 l48 -33 285 -2 285 -2 -160 33 c-189 39 -247 56
-338 104 -97 50 -157 119 -190 218 -33 103 -66 276 -74 389 -5 73 -3 97 11
122 9 18 16 48 16 68 0 43 13 45 30 5 23 -55 127 -127 208 -145 19 -4 48 -20
65 -35 31 -27 37 -28 152 -30 129 -3 245 15 245 37 0 7 8 13 18 13 9 0 36 11
60 25 32 18 42 20 42 9 0 -33 60 -3 140 71 32 29 72 60 88 69 20 10 31 25 36
48 3 17 16 42 27 54 26 27 132 279 164 389 13 44 35 110 49 148 47 122 80 350
101 697 8 124 20 254 29 290 8 36 20 103 27 150 14 101 22 118 59 132 35 12
47 42 29 75 -11 20 -10 31 5 71 30 78 36 112 36 218 0 170 -39 325 -108 426
-16 24 -35 60 -42 82 -17 53 -77 118 -101 111 -25 -8 -24 11 1 25 38 20 17
130 -26 130 -8 0 -14 -7 -14 -15 0 -8 5 -15 11 -15 8 0 8 -5 -1 -15 -20 -24
-25 -18 -38 49 -23 123 -148 468 -196 541 l-17 25 -37 -19 c-38 -19 -38 -19
-72 2 -32 20 -49 22 -205 23 -93 1 -183 0 -200 -2z m301 -89 c88 -26 137 -104
97 -154 l-19 -23 -44 22 c-67 34 -209 60 -372 67 -132 5 -148 4 -154 -11 -3
-9 -1 -23 6 -31 10 -13 8 -15 -14 -15 -27 0 -35 -13 -15 -26 6 -3 17 -20 24
-37 l13 -30 15 28 15 29 7 -33 c7 -32 9 -33 44 -27 101 19 162 25 298 30 l148
6 -50 -25 c-28 -13 -93 -31 -145 -40 -52 -8 -125 -20 -162 -26 -38 -6 -70 -15
-74 -20 -3 -5 -18 -2 -34 6 -16 8 -36 15 -46 15 -29 0 -130 60 -188 112 -61
54 -68 68 -33 68 12 0 46 16 76 35 102 65 228 93 427 94 88 1 146 -4 180 -14z
m257 -215 c58 -126 82 -220 57 -220 -5 0 -10 9 -10 20 0 10 -16 35 -35 55 -20
19 -45 35 -55 35 -11 0 -20 6 -20 14 0 7 -14 28 -32 45 -32 31 -32 32 -19 79
7 25 20 55 29 65 16 18 17 18 36 -5 10 -13 32 -52 49 -88z m-1278 60 c-4 -6 4
-19 17 -30 l23 -19 -30 -1 c-89 -2 -235 -126 -235 -200 0 -13 -7 -20 -20 -20
-13 0 -27 -15 -44 -47 l-25 -48 6 38 c5 34 4 37 -19 37 -37 0 -119 -30 -125
-47 -3 -7 3 -23 13 -35 14 -15 15 -19 4 -15 -90 35 -120 33 -120 -7 0 -17 9
-30 26 -39 l25 -13 -25 -12 c-23 -10 -26 -9 -26 9 0 32 -19 59 -40 59 -24 0
-24 -6 -4 61 27 92 58 141 111 176 73 49 237 123 290 132 27 4 57 12 68 19 25
14 139 16 130 2z m458 -165 c34 -37 127 -85 165 -85 12 0 25 -7 28 -15 8 -19
44 -20 44 -1 0 7 -11 30 -25 50 l-25 37 22 -7 c13 -4 43 -22 68 -41 37 -29 51
-34 81 -30 33 4 41 0 80 -39 66 -68 111 -53 52 17 l-28 32 25 -6 c14 -3 42 -9
63 -12 23 -5 37 -13 37 -22 0 -40 84 -113 129 -113 24 0 25 -4 10 -31 -17 -33
-2 -57 49 -73 l47 -16 -49 5 c-47 5 -48 4 -42 -20 5 -18 1 -27 -14 -35 -17 -9
-25 -5 -52 25 -24 28 -37 36 -55 32 -19 -3 -27 2 -37 27 -8 17 -37 53 -65 81
-28 27 -51 55 -51 63 0 8 -7 11 -18 8 -11 -4 -41 8 -76 29 -68 41 -86 43 -86
13 0 -17 -3 -19 -12 -10 -17 17 -38 15 -38 -3 0 -9 27 -32 59 -53 95 -59 99
-63 47 -41 -35 15 -60 19 -88 15 -33 -5 -42 -3 -57 15 -15 19 -20 20 -40 9
-17 -9 -55 -10 -140 -5 -175 10 -244 9 -269 -4 -36 -19 -23 -44 33 -59 l49
-14 -26 -14 c-49 -26 -168 -37 -333 -31 -88 4 -176 10 -195 16 -19 5 -28 9
-19 10 19 1 29 21 29 56 0 32 19 41 36 17 7 -11 33 -27 56 -37 42 -17 208 -55
241 -55 20 0 23 18 5 25 -7 2 -40 15 -73 27 l-60 23 90 5 c89 5 90 5 93 32 3
23 -3 30 -39 49 -44 22 -72 23 -219 3 -33 -4 -41 -3 -30 5 8 6 30 11 48 11 30
0 32 2 32 35 0 19 5 35 10 35 6 0 10 -7 10 -15 0 -17 35 -21 45 -5 3 6 17 10
30 10 13 0 26 4 29 9 8 13 143 20 237 13 73 -6 78 -7 39 -12 -37 -4 -45 -9
-45 -25 0 -30 54 -44 171 -44 69 -1 106 3 119 12 21 16 12 39 -11 30 -9 -3
-24 4 -35 16 -11 11 -28 21 -39 21 -30 0 -79 47 -73 70 7 28 19 25 56 -15z
m-820 -353 c-2 -10 5 -26 16 -36 19 -18 27 -18 90 -7 43 8 92 10 132 5 l64 -8
-60 -18 c-72 -22 -79 -29 -71 -62 8 -31 32 -33 61 -6 l22 21 32 -30 c17 -16
31 -36 31 -45 0 -9 4 -16 9 -16 14 0 41 47 41 70 0 12 4 18 11 15 5 -4 22 -4
36 0 18 4 24 11 20 25 -4 15 2 20 32 24 212 31 281 38 296 32 25 -9 18 -15
-124 -96 -112 -64 -156 -83 -116 -50 8 7 15 25 15 41 0 26 -3 29 -32 29 -48 0
-61 -13 -67 -67 l-6 -48 -89 -7 c-68 -5 -96 -12 -118 -28 -29 -21 -31 -21 -78
-6 -103 34 -104 35 -88 54 8 9 18 25 21 35 4 10 17 17 32 17 22 0 25 4 25 35
0 31 -3 35 -26 35 -14 0 -34 -5 -45 -10 -12 -7 -19 -7 -19 -1 0 6 -18 16 -41
22 -32 10 -45 10 -60 0 -12 -7 -33 -9 -54 -5 -23 4 -41 1 -57 -10 -30 -21 -35
-20 -40 9 -3 13 -1 22 4 19 5 -3 21 -3 35 1 18 4 24 11 20 25 -4 16 3 19 44
25 27 4 59 15 72 25 25 21 37 18 30 -8z m1319 -125 l48 -28 -21 -29 c-16 -21
-20 -37 -16 -60 l7 -31 -43 26 c-65 41 -106 59 -113 52 -11 -11 16 -36 108
-99 71 -48 94 -70 110 -105 25 -54 78 -99 127 -108 69 -13 84 -31 56 -69 -13
-18 -16 -17 -72 17 -32 20 -60 31 -62 25 -6 -17 81 -99 127 -120 41 -19 45
-19 63 -2 15 13 25 15 51 7 27 -7 32 -13 30 -32 -2 -15 6 -33 22 -50 64 -67
89 -196 84 -426 l-3 -154 29 -30 c28 -29 29 -34 18 -64 -18 -49 -15 -81 9
-103 18 -16 20 -27 16 -74 -13 -151 -69 -375 -106 -422 -10 -13 -35 -55 -54
-95 -20 -39 -47 -79 -59 -87 -19 -13 -21 -19 -11 -34 9 -15 5 -25 -18 -57 -18
-24 -29 -51 -29 -71 0 -18 -4 -35 -9 -38 -5 -3 -12 -21 -15 -39 -3 -19 -17
-44 -31 -57 -13 -12 -34 -51 -45 -86 -12 -35 -30 -74 -41 -88 -11 -14 -26 -41
-34 -60 -9 -20 -22 -36 -30 -36 -23 0 -19 62 6 94 13 17 19 36 16 51 -2 16 0
25 8 25 29 0 59 80 35 95 -13 8 -13 60 1 110 6 22 37 94 70 160 91 188 143
427 119 553 -13 68 -15 72 -50 72 -31 0 -70 -39 -70 -71 0 -13 -9 -19 -32 -21
-43 -4 -47 -28 -7 -51 17 -9 33 -26 36 -38 4 -14 11 -19 25 -16 23 6 38 -26
38 -80 0 -33 -2 -35 -25 -29 -23 6 -25 3 -25 -25 0 -17 -9 -42 -19 -55 -10
-13 -25 -48 -31 -77 -7 -28 -25 -81 -40 -117 -23 -55 -29 -90 -40 -232 l-13
-166 -25 9 c-38 15 -65 -10 -86 -77 -25 -79 -44 -108 -63 -93 -7 7 -14 10 -16
8 -1 -2 -9 -17 -17 -34 -12 -24 -23 -31 -51 -33 -26 -2 -39 -9 -47 -26 -7 -17
-21 -25 -51 -29 -23 -3 -63 -19 -90 -36 -63 -41 -89 -40 -258 9 -76 22 -145
40 -153 40 -9 0 -25 24 -39 55 -67 155 -205 359 -257 381 -41 17 -129 114
-177 196 -49 83 -109 238 -142 367 -23 92 -27 128 -30 315 -2 116 -9 256 -14
311 -20 193 -16 205 77 205 119 -1 313 -54 297 -81 -3 -4 -24 -13 -45 -19 -29
-8 -40 -16 -40 -30 0 -11 -6 -20 -12 -20 -21 0 -119 -48 -170 -83 -39 -26 -48
-38 -48 -61 0 -28 1 -28 45 -22 43 7 45 6 45 -17 0 -71 129 -97 211 -44 17 12
51 34 73 48 32 20 42 32 44 57 2 18 9 32 16 32 21 0 48 -66 44 -107 -2 -30 -8
-38 -28 -43 -20 -5 -26 -13 -28 -43 -3 -40 14 -50 38 -22 7 8 23 15 36 15 31
0 38 29 31 138 -6 102 -27 173 -68 224 -17 22 -29 49 -29 67 0 24 -8 36 -45
61 -82 57 -146 73 -281 74 -103 1 -125 -2 -141 -16 -11 -10 -23 -18 -26 -18
-4 0 -7 42 -7 93 0 80 3 97 25 132 13 22 25 52 25 67 0 18 12 37 42 62 46 40
60 40 34 2 -17 -27 -22 -66 -7 -66 5 0 28 26 52 58 60 81 75 92 110 85 18 -3
46 2 76 15 27 11 95 32 153 47 134 34 258 94 390 187 130 92 134 95 223 118
52 14 98 19 167 17 84 -2 101 -5 142 -30z m-1363 -41 c6 -7 9 -26 6 -42 -5
-27 0 -32 60 -72 36 -23 65 -48 65 -56 0 -38 -61 -52 -156 -36 -60 10 -79 10
-98 0 -13 -6 -32 -10 -42 -8 -14 4 -3 12 37 31 61 28 69 39 69 95 l0 36 -37
-36 c-50 -47 -82 -63 -96 -49 -14 14 23 54 76 84 21 11 40 31 43 44 5 17 13
23 34 23 15 0 33 -6 39 -14z m1734 -54 c36 -25 51 -32 57 -23 5 9 31 -10 86
-60 89 -82 94 -89 66 -89 -11 0 -25 -7 -32 -15 -12 -14 -16 -13 -36 6 -15 14
-37 22 -61 23 -34 1 -38 -2 -41 -26 -3 -22 2 -29 22 -34 14 -3 26 -10 26 -14
0 -16 -22 -22 -33 -11 -6 6 -19 11 -29 11 -11 0 -18 7 -18 20 0 12 -21 44 -47
72 -28 29 -39 46 -26 40 54 -29 73 6 27 49 -39 36 -66 78 -59 89 10 16 43 2
98 -38z m-2284 -793 c35 -35 45 -40 68 -34 82 20 113 -2 54 -39 -46 -30 -51
-48 -19 -70 29 -21 18 -29 -64 -54 -42 -12 -84 -34 -112 -57 -35 -28 -46 -33
-46 -21 0 46 59 89 139 102 23 4 41 10 41 15 0 4 -18 18 -40 30 -46 26 -70 70
-70 128 0 23 2 41 4 41 2 0 22 -19 45 -41z m431 -902 c0 -37 15 -57 42 -57 10
0 15 -5 12 -13 -3 -8 -14 -13 -26 -13 -29 1 -65 -53 -74 -109 -3 -25 -12 -50
-20 -56 -8 -6 -14 -22 -14 -35 0 -22 4 -24 49 -24 27 0 62 5 77 10 16 7 30 7
33 2 3 -5 21 -13 39 -17 41 -8 34 -18 -50 -77 -36 -26 -58 -48 -58 -60 0 -49
-41 -80 -120 -92 -50 -8 -90 -30 -90 -49 0 -7 -9 -31 -21 -52 -12 -22 -18 -29
-14 -15 4 14 10 47 12 73 7 66 -20 97 -86 97 -39 1 -43 3 -30 13 12 9 18 33
21 85 3 56 8 77 24 93 l21 21 12 -48 c15 -60 48 -123 67 -131 24 -9 54 26 54
65 0 26 -3 33 -15 28 -9 -3 -15 0 -15 9 0 11 11 15 36 15 33 0 36 2 30 23 -27
88 -14 151 44 228 28 37 40 64 40 86 0 18 5 33 10 33 6 0 10 -15 10 -33z"/>
<path d="M2365 3262 c-66 -8 -194 -45 -252 -74 -36 -18 -100 -65 -154 -114
-51 -46 -107 -89 -125 -96 -40 -14 -52 -46 -21 -57 43 -17 103 -22 130 -12 22
9 27 8 27 -4 0 -9 -13 -18 -30 -21 -44 -9 -56 -29 -39 -61 19 -35 18 -265 -1
-288 -29 -35 11 -225 48 -225 9 0 29 12 44 27 22 21 28 36 28 70 0 38 2 43 23
40 19 -2 22 2 20 34 -1 20 -14 62 -28 94 l-25 58 37 33 c44 38 48 39 96 19 41
-17 129 -19 232 -5 144 20 190 23 180 12 -24 -25 -121 -42 -239 -42 -124 0
-153 -7 -143 -33 12 -31 245 -50 328 -27 48 13 76 35 214 162 l115 107 29 -17
c37 -21 49 -11 27 23 -16 24 -21 25 -115 25 l-99 0 -52 44 c-57 48 -81 56
-179 56 -77 0 -77 -1 -211 -103 -56 -43 -104 -76 -107 -73 -3 2 2 29 11 59 9
30 16 58 16 62 0 9 -33 2 -92 -21 -40 -15 -50 -16 -60 -5 -11 11 -10 14 0 18
8 3 29 18 47 34 18 16 37 29 43 29 6 0 61 23 122 51 205 94 411 131 406 72 -1
-22 83 -69 107 -60 11 4 17 18 17 36 0 84 -231 191 -375 173z"/>
<path d="M2020 2275 c0 -91 8 -103 42 -60 26 34 91 53 114 34 20 -17 44 -70
44 -99 0 -35 -35 -60 -84 -60 -37 0 -48 5 -64 27 l-19 27 -47 -18 c-55 -21
-104 -60 -117 -93 -7 -19 -16 -23 -47 -23 -52 0 -101 17 -133 46 -14 13 -28
24 -31 24 -4 0 -12 -26 -18 -57 -12 -56 -12 -58 13 -79 14 -12 63 -37 109 -55
144 -57 233 -44 372 55 148 105 204 134 240 120 9 -3 21 -26 27 -51 8 -30 16
-43 25 -39 10 4 14 -3 14 -19 0 -29 17 -33 36 -8 15 22 20 18 28 -28 8 -45 15
-43 -199 -64 -88 -8 -203 -24 -255 -35 -145 -31 -453 -62 -462 -47 -13 20 -9
67 6 73 17 6 12 26 -15 65 -18 26 -18 27 1 44 11 10 21 36 25 61 3 24 7 64 11
88 3 25 16 61 30 81 13 20 24 49 24 65 0 25 -4 30 -23 30 -13 0 -32 -9 -43
-21 -40 -44 -114 -157 -147 -224 -19 -39 -55 -95 -81 -123 -63 -72 -62 -96 5
-168 29 -30 55 -54 60 -54 4 0 10 9 14 19 6 19 7 19 42 -5 20 -13 42 -24 50
-24 31 0 93 -42 124 -84 33 -47 56 -63 71 -48 6 6 34 2 70 -9 33 -11 81 -19
106 -19 75 1 197 26 257 54 47 21 55 29 55 52 0 26 -2 26 -45 22 -27 -3 -62
-17 -86 -33 -33 -24 -53 -29 -117 -33 -63 -3 -80 -1 -91 12 -7 9 -26 16 -41
16 -19 0 -36 9 -49 26 -35 45 -28 56 29 48 33 -4 55 -3 64 5 11 9 23 8 52 -4
34 -14 39 -14 46 0 7 11 26 15 78 15 38 0 72 4 75 10 3 5 21 9 41 8 23 -1 42
6 59 22 32 30 47 18 47 -41 3 -186 -319 -329 -494 -220 -27 17 -54 31 -59 31
-19 0 -8 -51 21 -97 17 -26 30 -55 30 -65 0 -12 11 -23 30 -29 26 -10 30 -16
30 -50 0 -32 3 -39 20 -39 11 0 20 7 20 16 0 12 5 13 23 7 27 -10 171 -9 211
1 22 5 27 11 23 28 -5 19 -3 20 31 14 20 -3 42 -13 49 -22 25 -34 156 22 165
71 8 37 -7 40 -47 9 -43 -33 -55 -26 -24 15 28 38 45 45 70 27 29 -20 64 -8
119 41 52 47 65 71 55 103 -12 36 -43 23 -92 -41 -37 -47 -52 -59 -68 -55 -11
3 -25 6 -31 6 -7 0 -9 11 -6 25 6 33 -3 32 -52 -8 -74 -61 -95 -64 -40 -6 70
73 88 110 81 171 l-6 48 32 0 c33 0 55 16 198 138 33 29 74 56 90 59 32 6 59
36 59 65 0 17 -31 71 -65 115 -17 20 -32 26 -73 29 -29 2 -67 11 -84 20 -50
26 -176 112 -217 149 -61 54 -186 105 -260 105 l-31 0 0 -85z"/>
<path d="M4210 3086 c0 -96 4 -177 8 -180 4 -2 14 -1 22 4 19 12 40 1 40 -22
0 -11 5 -28 10 -38 8 -15 7 -18 -4 -14 -9 3 -16 -4 -20 -20 -13 -51 -76 -25
-91 37 -12 46 -35 34 -35 -19 0 -52 -18 -56 -33 -8 -20 62 -47 72 -47 19 0
-32 -2 -35 -20 -25 -10 6 -22 26 -26 45 -7 40 -34 48 -56 17 -7 -10 -21 -21
-30 -25 -14 -5 -16 -13 -12 -36 5 -23 2 -32 -10 -37 -20 -8 -21 -41 -2 -46 12
-2 11 -9 -2 -38 -21 -44 -94 -85 -122 -70 -28 15 -61 12 -76 -7 -17 -23 -18
-90 -1 -96 6 -3 -5 -12 -25 -21 -63 -27 -77 -17 -33 24 32 30 32 43 -3 56 -24
9 -30 20 -41 67 -14 64 -28 71 -65 34 -19 -19 -25 -41 -35 -132 -7 -61 -23
-143 -37 -183 -27 -81 -30 -112 -11 -112 7 0 22 -7 33 -16 10 -8 13 -13 6 -9
-20 11 -41 -13 -78 -91 -39 -83 -90 -134 -134 -134 -40 0 -48 -19 -56 -138
l-7 -102 24 0 c13 1 182 36 374 79 l350 79 5 27 c5 26 6 27 19 11 12 -14 25
-16 85 -10 82 8 96 16 96 55 0 62 -59 83 -130 46 -30 -16 -52 -22 -56 -16 -3
6 -4 12 -3 13 33 25 59 36 82 36 26 0 28 3 22 23 -4 12 -10 45 -15 73 -20 130
-110 185 -110 67 0 -28 -5 -46 -14 -49 -8 -3 -17 -16 -20 -30 -6 -23 -8 -23
-30 -9 -12 8 -29 27 -37 43 -7 15 -15 29 -16 31 -2 3 -14 -6 -28 -19 -26 -24
-36 -90 -14 -90 5 0 15 -14 21 -31 9 -25 15 -30 34 -26 28 5 31 -5 8 -27 -19
-19 -39 -20 -79 -2 l-30 13 28 8 c15 4 27 14 27 22 0 41 -200 -23 -222 -71 -7
-17 -19 -26 -35 -26 -13 0 -42 -9 -64 -21 -50 -25 -64 -18 -18 10 52 30 59 39
59 73 0 28 -2 30 -27 25 l-28 -5 27 23 c31 26 62 24 81 -6 18 -29 27 -23 27
21 0 34 -4 42 -25 50 -14 5 -25 12 -25 14 0 3 7 3 15 0 31 -12 14 31 -31 77
l-45 46 58 25 c32 14 65 33 72 42 18 22 47 20 78 -4 14 -11 32 -20 39 -20 20
0 47 47 41 70 -8 29 28 46 60 29 37 -20 58 -2 58 52 l0 44 -55 -3 c-69 -3 -47
13 29 21 60 7 159 50 227 99 42 30 46 31 61 15 16 -16 16 -17 -6 -17 -13 0
-31 -11 -42 -24 -10 -13 -45 -33 -78 -46 -33 -12 -66 -29 -74 -38 -22 -27 -41
-82 -31 -91 5 -5 39 -12 77 -16 55 -5 67 -4 67 8 0 8 -7 20 -15 27 -22 18 -3
37 46 45 27 5 64 1 110 -11 75 -19 101 -14 107 21 3 14 -1 17 -23 13 -15 -3
-54 4 -88 15 l-61 21 34 9 c21 5 42 5 57 -2 26 -12 121 -15 147 -5 9 3 16 14
16 23 0 23 -65 84 -117 110 -24 12 -43 26 -43 32 0 6 18 0 40 -12 l39 -22 45
41 c25 23 53 42 62 42 11 0 14 5 10 16 -3 9 -6 20 -6 25 0 5 -12 14 -26 19
-18 7 -24 15 -20 26 3 9 6 22 6 30 0 8 7 14 15 14 12 0 14 7 9 28 -15 64 -55
221 -67 262 l-14 45 -67 3 -66 3 0 -175z"/>
<path d="M3600 3178 c1 -80 21 -491 26 -530 6 -50 20 -60 54 -38 12 8 13 13 3
30 -22 34 -16 42 25 36 49 -8 72 6 55 33 -8 13 -9 22 -3 26 11 7 14 108 4 118
-4 4 -6 77 -5 162 2 109 -1 161 -10 171 -8 10 -33 14 -80 14 -65 0 -69 -1 -69
-22z"/>
<path d="M3390 3060 c0 -11 -9 -38 -20 -60 -21 -42 -26 -70 -11 -70 5 0 23
-12 40 -26 31 -26 42 -73 23 -100 -14 -22 -50 -33 -84 -28 -46 8 -78 -10 -78
-41 0 -19 15 -36 55 -68 40 -30 59 -53 67 -80 6 -21 16 -36 22 -34 6 2 22 35
36 73 17 47 32 72 48 79 28 12 28 41 2 200 -21 126 -40 167 -79 173 -16 3 -21
-2 -21 -18z"/>
<path d="M4219 2464 c-10 -13 -10 -20 4 -44 15 -24 15 -29 2 -40 -22 -18 -18
-45 8 -57 20 -10 19 -11 -22 -23 -47 -12 -61 -5 -61 32 0 23 -21 68 -32 68 -4
0 -8 -18 -8 -40 0 -33 -3 -40 -20 -40 -30 0 -27 -54 5 -92 14 -16 25 -38 25
-49 0 -12 7 -19 20 -19 14 0 22 11 31 40 8 28 18 40 30 40 16 0 17 -4 9 -26
-6 -15 -19 -38 -30 -52 -35 -43 -15 -89 20 -47 7 8 16 15 21 15 5 0 9 -7 9
-15 0 -8 -4 -15 -10 -15 -15 0 -12 -47 3 -53 6 -3 2 -6 -11 -6 -39 -2 -24 -35
18 -40 41 -4 190 17 210 29 9 6 15 37 18 99 4 77 2 91 -11 91 -20 0 -28 -23
-18 -58 7 -23 4 -32 -14 -50 -29 -28 -51 -28 -66 -1 -11 22 0 38 27 39 17 0
47 78 40 106 -7 28 -40 33 -50 8 -5 -13 -9 -14 -21 -4 -19 16 -19 30 0 30 10
0 15 10 15 33 0 40 -15 57 -52 57 -31 0 -37 14 -11 28 23 14 9 42 -22 42 -16
0 -25 6 -25 15 0 19 -14 19 -31 -1z"/>
<path d="M3603 2312 c-6 -4 -13 -16 -15 -27 -2 -16 3 -21 25 -23 22 -3 27 -7
22 -20 -24 -57 -28 -71 -22 -86 8 -21 33 -20 66 3 15 11 40 21 56 23 24 2 31
8 33 31 2 18 -1 27 -11 27 -8 0 -34 16 -57 35 -23 19 -46 35 -50 35 -5 0 -14
2 -22 5 -7 3 -18 1 -25 -3z"/>
<path d="M3231 2276 c-29 -73 -40 -216 -18 -216 17 0 111 94 137 138 11 17 24
32 30 32 23 0 8 18 -21 24 -17 3 -42 15 -56 26 -34 27 -61 25 -72 -4z"/>
<path d="M4275 1839 c-38 -10 -95 -24 -125 -30 -83 -17 -82 -17 -75 -39 7 -23
-13 -28 -21 -5 -9 23 -41 18 -48 -8 -10 -41 -90 -63 -117 -31 -7 8 -21 13 -31
11 -10 -3 -26 2 -34 11 -15 15 -18 14 -36 -8 -24 -30 -20 -53 11 -60 22 -5 21
-7 -14 -17 -40 -13 -54 -6 -55 25 0 6 -4 12 -8 12 -14 0 -32 -23 -32 -41 0 -9
-7 -20 -16 -23 -22 -9 -24 -8 -24 10 0 14 -7 16 -42 11 -79 -12 -206 -57 -256
-92 -28 -19 -63 -37 -77 -41 -27 -7 -27 -8 -21 -62 9 -80 25 -108 59 -104 22
2 27 -1 27 -20 0 -12 -12 -34 -26 -49 -33 -34 -29 -52 29 -139 54 -81 82 -90
92 -31 6 36 10 41 41 47 24 4 34 12 34 25 0 15 -7 19 -36 19 -19 0 -44 5 -56
11 -20 11 -20 11 2 34 12 13 28 21 36 18 8 -3 28 0 45 7 28 12 33 11 57 -13
26 -26 26 -26 6 -48 -39 -44 -14 -212 43 -279 31 -38 79 -42 92 -7 4 12 11 87
15 167 7 158 15 177 66 165 36 -9 38 -13 54 -105 13 -70 20 -88 41 -104 25
-17 25 -19 9 -37 -13 -14 -16 -30 -11 -67 7 -58 -3 -72 -50 -72 -52 0 -41 -26
22 -49 114 -43 121 -34 129 174 8 209 25 291 68 327 37 32 34 37 -37 63 l-50
19 46 11 c25 5 53 16 61 22 12 10 19 9 36 -10 19 -20 19 -26 9 -64 -8 -32 -8
-70 1 -155 7 -62 16 -116 20 -120 12 -12 119 202 127 252 5 28 17 54 31 67 35
32 31 53 -8 53 -54 0 -68 17 -22 25 66 11 72 15 83 47 6 17 11 35 11 39 0 5
-37 9 -82 9 -80 0 -82 0 -114 -35 -31 -35 -32 -35 -117 -35 -93 0 -137 -11
-137 -34 0 -33 -59 -50 -165 -48 l-101 1 -11 -29 c-20 -52 -141 -81 -189 -45
-18 13 -17 14 19 15 30 0 39 5 47 25 9 24 56 55 83 55 8 0 25 8 38 19 17 13
40 18 79 18 39 0 78 9 135 32 50 20 105 35 148 38 43 4 71 11 74 19 6 17 81
41 163 53 36 5 87 18 115 28 l50 19 17 69 c24 104 24 105 -19 104 -21 0 -69
-9 -108 -20z"/>
<path d="M3250 1106 c0 -8 -10 -25 -22 -36 -19 -17 -20 -24 -10 -38 25 -35 34
-69 39 -156 5 -75 3 -94 -12 -123 -16 -29 -17 -36 -4 -44 10 -6 10 -9 2 -9 -8
0 -13 -15 -13 -42 0 -24 -9 -63 -20 -87 -28 -60 -26 -81 6 -81 20 0 29 -9 45
-45 11 -25 23 -74 27 -108 4 -34 12 -62 17 -62 6 0 28 35 49 78 33 64 40 89
40 135 -1 114 -22 368 -33 395 -6 16 -17 59 -25 97 -15 73 -37 114 -67 131
-15 7 -19 6 -19 -5z"/>
<path d="M1195 1032 c-64 -19 -91 -32 -93 -44 -3 -14 -14 -18 -55 -19 -29 0
-74 -6 -102 -12 -41 -10 -52 -18 -68 -49 -11 -20 -35 -44 -53 -54 -19 -10 -34
-23 -34 -29 0 -5 -9 5 -20 23 -12 19 -28 32 -40 32 -17 0 -20 -7 -20 -42 l0
-41 -23 21 c-29 28 -37 28 -37 0 l0 -21 -23 21 c-13 12 -26 22 -30 22 -12 0
-8 -95 5 -108 29 -29 108 -1 108 39 0 18 2 18 24 4 25 -17 56 -11 56 11 0 10
8 12 30 7 23 -4 37 0 53 14 12 11 39 24 60 27 21 4 71 20 110 36 40 15 94 32
120 35 34 5 52 14 63 30 9 13 30 26 49 29 30 6 35 11 35 33 0 25 1 26 14 8 13
-18 14 -18 31 -2 11 11 25 15 37 11 16 -5 19 -2 16 18 -3 21 -8 23 -63 25 -40
1 -89 -7 -150 -25z"/>
<path d="M2788 801 c-19 -17 -47 -35 -62 -41 -18 -7 -33 -23 -43 -49 -13 -33
-22 -41 -65 -55 -28 -9 -66 -16 -84 -16 -26 0 -34 -4 -34 -18 0 -24 31 -52 55
-52 11 0 57 14 103 32 73 27 90 38 123 80 73 92 78 181 7 119z"/>
<path d="M2094 675 c-4 -8 -3 -27 0 -41 5 -17 3 -23 -4 -19 -13 8 -13 -11 0
-34 11 -22 134 -115 213 -161 62 -37 135 -105 124 -117 -4 -3 -22 8 -41 26
-31 30 -34 31 -39 12 -3 -12 -17 -25 -31 -31 -14 -5 -26 -16 -26 -24 0 -40 92
-47 191 -16 77 24 109 44 109 71 0 19 -5 20 -60 17 -33 -1 -60 -2 -60 -1 0 1
23 14 52 28 100 50 258 174 258 201 0 23 -18 16 -106 -37 -80 -49 -104 -54
-104 -23 0 18 -39 18 -46 0 -7 -19 -96 -56 -134 -56 -45 0 -88 29 -107 72 -9
21 -26 41 -37 44 -12 4 -42 29 -68 55 -49 50 -74 60 -84 34z"/>
<path d="M1386 648 c-8 -18 -19 -51 -26 -73 -12 -42 -36 -82 -45 -74 -2 3 0
21 5 40 15 52 12 76 -10 82 -11 3 -20 12 -20 21 0 44 -49 -17 -57 -72 -3 -20
-10 -43 -16 -50 -7 -9 -4 -19 10 -35 10 -12 24 -34 30 -49 10 -22 9 -29 -8
-44 -18 -16 -19 -16 -19 4 0 16 -6 22 -22 22 -21 0 -23 5 -23 53 -1 67 -12
107 -30 107 -34 0 -40 -148 -7 -203 15 -25 25 -32 46 -30 21 2 26 -2 22 -13
-3 -9 -6 -23 -6 -32 -1 -16 -2 -15 -14 1 -19 24 -26 21 -26 -11 0 -22 7 -32
35 -45 34 -16 35 -16 35 4 0 12 16 36 35 53 27 25 37 45 45 86 6 30 15 59 21
65 8 7 9 -25 4 -115 -3 -69 -8 -132 -11 -141 -3 -12 7 -21 36 -33 22 -9 43
-16 46 -16 3 0 4 71 2 158 -2 86 1 205 6 265 8 97 7 107 -8 107 -10 0 -23 -14
-30 -32z"/>
<path d="M3117 441 c-19 -21 -40 -55 -47 -75 -6 -20 -16 -34 -21 -31 -4 3 -19
-1 -32 -10 -16 -10 -34 -13 -55 -9 -37 8 -40 -3 -14 -56 11 -22 26 -36 40 -38
24 -4 30 16 10 36 -8 8 -9 12 -1 12 6 0 18 3 26 6 9 3 16 -3 20 -15 7 -29 57
-30 57 -1 0 13 7 20 19 20 30 0 43 25 40 81 -3 46 0 53 19 60 15 6 22 17 22
34 0 40 -40 33 -83 -14z"/>
</g>
</svg>
