<?xml version="1.0" standalone="no"?>
<!DOCTYPE svg PUBLIC "-//W3C//DTD SVG 20010904//EN"
 "http://www.w3.org/TR/2001/REC-SVG-20010904/DTD/svg10.dtd">
<svg version="1.0" xmlns="http://www.w3.org/2000/svg"
 width="300.000000pt" height="399.000000pt" viewBox="0 0 300.000000 399.000000"
 preserveAspectRatio="xMidYMid meet">
<metadata>
Created by potrace 1.10, written by Peter Selinger 2001-2011
</metadata>
<g transform="translate(0.000000,399.000000) scale(0.050000,-0.050000)"
fill="#61DAFB" stroke="none">
<path d="M5280 7962 c0 -10 14 -23 30 -29 17 -7 30 -25 30 -41 0 -42 52 -27
102 29 l43 49 -10 -55 c-5 -30 -2 -55 7 -55 31 0 128 50 155 80 23 26 25 26
16 -4 -8 -24 -2 -31 18 -23 99 38 21 67 -181 67 -115 0 -210 -8 -210 -18z"/>
<path d="M5865 5853 c-36 -20 -40 -30 -21 -49 20 -20 16 -28 -19 -37 -25 -6
-46 -20 -48 -29 -9 -52 -5 -68 18 -70 14 -2 38 -4 54 -5 18 -2 25 -15 18 -33
-7 -19 1 -30 22 -30 18 0 28 -9 22 -19 -7 -11 -24 -15 -38 -10 -14 6 -46 -13
-72 -40 -34 -36 -69 -51 -119 -51 -48 0 -92 -17 -130 -50 -44 -38 -65 -44 -84
-28 -20 16 -35 14 -57 -9 -52 -51 -35 -91 58 -144 44 -25 61 -101 27 -122 -13
-8 -27 -3 -32 10 -4 13 -16 18 -26 12 -10 -6 -28 12 -41 40 -24 52 -177 79
-177 31 0 -11 10 -20 21 -20 13 0 16 -17 9 -41 -7 -22 -3 -53 9 -68 18 -21 17
-38 -2 -69 -39 -62 -7 -71 50 -13 28 28 63 50 77 49 19 -1 20 -4 2 -11 -14 -5
-31 -41 -38 -78 -7 -38 -20 -69 -30 -69 -10 0 -18 -17 -18 -38 0 -23 -19 -42
-50 -50 -27 -7 -49 -19 -48 -27 8 -48 -16 -57 -156 -62 -85 -3 -169 -15 -185
-26 -21 -13 19 -17 125 -11 85 4 160 1 165 -8 6 -9 26 -11 45 -5 20 6 26 4 14
-6 -27 -23 -34 -67 -11 -67 10 0 28 16 39 35 12 19 21 25 21 12 1 -12 -13 -34
-30 -48 -17 -14 -26 -38 -20 -53 7 -18 2 -23 -12 -14 -16 10 -20 1 -12 -27 8
-31 3 -39 -19 -31 -17 7 -25 27 -20 48 8 29 -4 39 -53 48 -120 20 -182 1 -189
-57 -5 -37 -18 -53 -45 -53 -34 0 -36 -5 -15 -39 31 -50 20 -60 -50 -47 -37 7
-53 21 -46 39 6 15 3 27 -7 27 -10 0 -24 27 -31 60 -15 70 -70 82 -70 15 -1
-57 -39 -116 -53 -81 -5 13 -21 19 -36 14 -16 -6 -31 10 -39 41 -7 28 -22 51
-32 51 -26 0 -26 -114 0 -130 23 -14 27 -70 5 -69 -8 0 -40 37 -71 82 -31 44
-47 75 -35 68 11 -7 21 1 21 18 0 23 -22 31 -90 31 l-90 0 0 -185 c0 -113 7
-174 18 -157 20 31 68 10 57 -24 -5 -13 11 -40 33 -60 l42 -36 -45 22 c-37 18
-45 16 -45 -11 0 -52 -89 -28 -96 26 -4 25 -14 45 -23 45 -8 0 -11 -22 -6 -50
6 -29 0 -50 -12 -50 -12 0 -28 23 -35 50 -7 28 -20 50 -28 50 -9 0 -12 -18 -6
-40 8 -31 3 -38 -22 -28 -17 7 -32 29 -32 50 0 45 -36 51 -53 8 -6 -16 -19
-25 -29 -19 -10 6 -12 -4 -5 -22 7 -19 1 -41 -15 -51 -22 -14 -18 -21 17 -30
24 -7 40 -20 34 -29 -5 -9 -1 -22 11 -29 11 -7 20 -22 20 -33 0 -12 -17 -1
-37 25 l-38 46 -14 -44 c-8 -26 -30 -44 -54 -44 -21 0 -34 -9 -27 -20 7 -11
-11 -10 -40 4 -43 19 -56 18 -71 -5 -26 -41 -23 -79 5 -79 35 0 -5 -33 -60
-49 -52 -16 -54 22 -4 63 26 22 26 25 -5 25 -19 1 -36 10 -37 21 -3 21 -10 51
-18 75 -3 8 -4 22 -2 30 1 9 -16 4 -38 -10 -29 -18 -40 -46 -40 -101 0 -87
-37 -253 -64 -287 -12 -16 -5 -28 23 -37 23 -7 41 -21 41 -31 0 -10 -12 -13
-26 -8 -16 6 -35 -17 -50 -59 -38 -104 -102 -175 -151 -168 -39 5 -44 -6 -53
-111 -11 -116 -11 -116 40 -105 27 6 189 43 358 81 170 39 317 71 328 71 10 0
13 13 7 30 -7 16 -3 30 8 30 10 0 19 -9 19 -21 0 -11 25 -16 55 -11 30 5 71 9
90 10 24 2 33 15 28 47 -8 53 -84 64 -136 20 -25 -21 -37 -22 -48 -4 -11 18
-18 18 -29 -1 -10 -16 -18 -13 -28 11 -10 26 -4 32 27 23 22 -5 50 2 62 17 12
15 37 21 55 14 28 -10 30 -7 10 17 -13 17 -20 48 -15 69 13 53 -64 150 -88
112 -10 -15 -14 -44 -8 -65 5 -21 0 -38 -13 -38 -12 0 -22 -13 -22 -30 0 -40
-12 -38 -58 8 -21 21 -33 46 -25 55 7 8 -3 4 -22 -11 -38 -29 -48 -82 -15 -82
11 0 20 -14 20 -32 0 -20 11 -28 30 -21 33 13 38 -3 13 -43 -11 -17 -35 -22
-70 -13 -58 15 -72 49 -20 49 19 0 29 5 23 11 -25 24 -202 -38 -211 -74 -5
-20 -16 -33 -24 -28 -7 5 -39 -4 -70 -20 -68 -35 -72 -36 -66 -4 3 14 23 30
45 36 22 6 43 27 47 47 5 28 -2 33 -33 23 -48 -15 -74 36 -34 69 22 18 25 13
17 -24 -8 -39 -6 -41 12 -13 25 39 76 37 102 -4 14 -22 18 -19 19 16 0 25 -10
43 -22 40 -13 -3 -28 8 -33 23 -6 17 -1 22 12 14 39 -24 25 4 -27 56 -63 63
-63 59 20 92 39 15 70 35 70 44 0 26 55 19 84 -11 23 -23 31 -22 54 1 14 16
21 34 14 40 -25 25 32 67 60 45 34 -29 68 -7 68 42 0 33 -10 38 -62 29 -45 -8
-59 -4 -53 14 5 14 25 23 45 19 50 -9 212 55 257 101 39 41 75 40 89 -3 7 -19
-1 -23 -23 -15 -21 8 -33 2 -33 -15 0 -15 -38 -40 -85 -56 -47 -16 -85 -37
-85 -47 0 -10 -8 -29 -16 -43 -18 -27 -16 -28 86 -36 54 -5 62 -2 34 14 -85
48 68 96 172 54 44 -18 62 -17 80 3 19 21 16 23 -14 13 -20 -8 -47 -5 -60 5
-12 10 -49 22 -82 26 l-60 8 70 21 c39 11 75 13 82 3 13 -20 158 -15 158 5 0
20 -91 99 -114 99 -12 0 -32 14 -46 30 -32 38 19 43 56 6 19 -19 31 -15 55 20
17 24 44 44 60 44 45 0 34 34 -14 47 -35 9 -39 17 -20 39 12 15 17 34 9 41 -7
7 3 13 23 13 20 0 31 -11 26 -25 -6 -16 10 -26 47 -27 31 -1 52 6 45 16 -6 11
8 37 31 58 23 22 42 32 42 24 0 -9 9 -2 20 14 14 21 24 23 35 7 24 -36 91 -42
150 -13 30 15 55 18 55 8 0 -11 -19 -25 -42 -33 -28 -9 -35 -20 -22 -33 24
-24 104 -2 104 29 0 12 19 42 42 67 46 49 19 87 -28 39 -16 -16 -35 -24 -42
-17 -17 18 -15 47 3 41 9 -3 38 15 64 40 44 40 45 45 11 45 -54 0 -7 44 54 50
43 5 48 -3 48 -67 0 -40 7 -98 16 -128 14 -47 11 -53 -17 -43 -18 7 -31 5 -29
-5 8 -48 -7 -67 -54 -67 -28 0 -75 -18 -103 -40 -78 -62 -194 -38 -170 35 5
16 -10 23 -42 21 -35 -3 -45 -11 -32 -27 10 -13 14 -28 8 -34 -6 -6 16 -23 50
-38 62 -27 77 -48 42 -60 -11 -4 -15 -27 -8 -52 14 -53 91 -51 99 4 14 95 35
42 35 -91 0 -35 80 -42 128 -11 42 26 28 -23 -19 -66 -39 -37 -40 -41 -8 -41
24 0 32 -10 25 -30 -7 -16 -2 -30 10 -30 12 0 17 17 12 39 -7 24 7 55 37 83
27 25 48 66 48 92 0 27 15 53 35 61 19 7 52 34 73 61 24 30 51 44 75 37 20 -5
42 -1 49 10 7 12 22 11 38 -3 16 -14 31 -15 38 -3 7 11 1 24 -13 30 -17 7 -8
26 29 60 45 41 49 54 27 72 -19 16 -31 16 -40 2 -29 -46 -76 -23 -62 31 7 30
5 47 -6 40 -10 -7 -24 3 -31 20 -7 18 -25 27 -42 21 -16 -6 -33 -4 -39 6 -14
23 37 41 88 31 22 -4 45 0 51 9 5 10 27 13 48 7 21 -5 44 2 53 15 10 16 7 20
-8 11 -15 -9 -23 1 -23 29 0 30 9 40 30 32 43 -17 90 6 90 42 0 26 -6 26 -40
-5 -39 -35 -40 -35 -40 16 0 60 73 97 102 51 10 -15 18 -19 18 -10 0 10 14 7
30 -7 17 -14 30 -17 30 -7 0 9 10 4 22 -13 19 -25 20 -25 11 4 -6 19 -1 41 11
48 15 10 11 22 -12 39 -31 23 -31 25 1 37 21 9 41 2 52 -17 9 -17 30 -31 46
-31 16 0 28 -7 27 -15 -8 -45 5 -68 32 -58 17 7 30 2 30 -10 0 -13 -20 -16
-48 -9 -30 7 -52 3 -57 -12 -4 -14 -46 -25 -96 -25 -74 -1 -89 -8 -90 -41 -5
-81 -33 -133 -67 -120 -26 10 -27 7 -7 -13 29 -29 34 -65 6 -48 -31 19 -43
-24 -15 -53 15 -14 23 -38 19 -51 -5 -16 3 -21 23 -13 18 7 32 22 32 34 0 12
19 1 42 -24 40 -42 38 -69 -4 -74 -10 -2 -27 -4 -38 -5 -30 -4 -24 -63 7 -63
25 0 92 63 121 114 8 16 -17 40 -69 67 -77 39 -80 44 -46 69 20 14 46 21 57
15 11 -6 13 -4 5 5 -8 9 5 33 28 53 52 45 57 45 57 6 0 -17 -9 -26 -20 -19
-11 7 -20 3 -20 -9 0 -11 10 -21 21 -21 12 0 16 -9 9 -20 -7 -11 -2 -20 10
-20 12 0 20 -11 19 -25 -8 -57 6 -65 119 -65 l118 0 -3 70 c-2 53 -13 71 -43
76 -28 4 -32 1 -14 -12 14 -10 20 -32 12 -52 -8 -20 -19 -27 -26 -15 -7 11
-44 23 -82 28 -58 6 -70 16 -70 56 0 54 -42 97 -95 98 -19 1 -35 11 -35 24 0
14 22 18 63 9 42 -8 80 -2 110 18 35 23 46 24 42 6 -3 -14 11 -25 30 -23 19 1
35 -4 35 -12 0 -8 18 -36 40 -61 l40 -46 0 56 c0 31 -6 51 -12 44 -7 -7 -27 2
-44 19 -26 26 -26 33 -2 48 22 14 23 22 3 42 -30 30 -34 85 -5 67 11 -7 20 6
20 28 0 22 9 45 20 52 25 16 27 430 1 430 -10 0 -32 -13 -48 -30 -40 -40 -44
-38 -48 16 -3 41 3 46 56 38 48 -7 59 -1 59 31 0 32 -13 39 -75 37 -60 -2 -75
-10 -75 -40 0 -63 -44 -59 -76 7 -17 34 -23 61 -14 61 9 0 20 -11 25 -24 5
-15 33 -4 79 31 45 34 77 47 85 34 26 -41 54 -20 47 34 -4 40 -19 57 -51 61
-25 4 -40 15 -34 26 7 10 21 13 33 5 14 -8 18 5 12 38 -7 35 -2 48 14 42 18
-7 25 35 25 153 0 132 -5 160 -29 151 -15 -6 -23 -2 -16 9 17 28 -31 24 -85
-7z m-174 -451 c-7 -21 -4 -44 6 -50 11 -7 15 -30 9 -52 -6 -23 -1 -40 13 -40
13 0 18 -8 12 -18 -6 -11 2 -32 18 -48 22 -22 23 -34 5 -54 -15 -16 -15 -21
-2 -14 12 7 39 0 60 -16 35 -27 36 -29 2 -29 -19 -1 -44 -21 -54 -46 l-18 -45
-13 45 c-8 25 -26 45 -42 45 -21 0 -18 11 12 43 41 45 36 87 -8 70 -14 -5 -37
11 -51 38 -29 53 -85 85 -67 38 8 -20 -3 -29 -33 -29 -39 0 -41 4 -18 32 22
27 21 35 -8 51 -19 11 -29 28 -23 39 8 13 23 11 41 -3 17 -15 28 -16 28 -3 0
11 18 16 40 10 27 -7 40 -1 40 20 0 25 19 43 56 52 4 1 1 -15 -5 -36z m289
-297 c0 -9 -16 -25 -35 -37 -20 -13 -38 -47 -40 -76 -3 -30 4 -49 14 -43 10 7
24 3 31 -9 7 -11 -5 -20 -27 -20 -22 0 -53 -5 -70 -11 -16 -7 -34 0 -39 15 -5
14 -6 2 -2 -27 7 -59 -43 -94 -80 -56 -16 15 -12 27 13 41 43 24 47 61 5 45
-16 -6 -30 -2 -30 9 0 10 -18 24 -40 30 -23 6 -40 0 -40 -13 0 -14 -8 -12 -18
5 -16 24 -23 24 -49 -2 -23 -24 -25 -36 -7 -54 19 -19 15 -21 -14 -10 -31 12
-36 8 -26 -19 9 -24 2 -33 -27 -33 -21 0 -39 -9 -39 -20 0 -30 52 -24 79 9 13
15 41 27 62 25 52 -3 52 -86 0 -113 -51 -28 -66 -26 -50 4 7 14 -4 6 -24 -18
-52 -60 -124 -79 -140 -37 -7 18 -2 43 10 55 13 13 23 38 23 57 0 18 14 39 31
46 24 9 28 28 18 82 -13 70 -13 70 49 57 53 -10 62 -6 62 29 0 43 43 85 54 53
18 -51 44 -67 121 -77 89 -10 110 10 50 48 -31 20 -30 22 10 13 27 -5 64 6 90
28 48 40 75 49 75 24z m-1672 -717 c18 -7 32 -26 32 -42 0 -19 -11 -26 -32
-18 -17 7 -39 12 -49 12 -10 0 -13 14 -6 30 13 34 13 34 55 18z m1005 -120 c2
-35 -10 -51 -44 -60 -88 -22 -129 55 -44 81 27 8 35 18 20 24 -14 6 -20 18
-14 28 19 31 79 -22 82 -73z m-153 -69 c0 -11 -17 -39 -39 -62 -21 -23 -33
-54 -27 -69 7 -19 -4 -28 -33 -28 -25 0 -38 -9 -31 -21 14 -22 -66 -97 -105
-98 -37 -1 -31 34 10 57 28 17 29 21 5 23 -16 1 -7 11 20 22 49 19 49 21 11
48 -21 16 -28 29 -16 29 12 0 28 -9 35 -20 19 -30 55 -1 42 33 -8 19 0 27 23
23 22 -4 33 5 29 22 -3 16 6 36 20 45 36 22 56 21 56 -4z"/>
<path d="M2230 5829 c-66 -14 -159 -40 -207 -58 -48 -17 -95 -26 -105 -20 -28
18 -98 -11 -93 -37 3 -14 -14 -22 -41 -19 -27 3 -41 -4 -34 -15 7 -11 -2 -20
-19 -20 -17 0 -31 9 -31 21 0 86 -625 -123 -712 -238 -12 -16 -31 -23 -43 -16
-51 32 -40 -162 16 -270 12 -23 7 -42 -13 -59 -59 -49 -106 -162 -63 -153 14
3 25 -8 25 -25 0 -16 -10 -28 -23 -26 -16 3 -21 -35 -16 -130 4 -74 7 -150 8
-170 0 -20 9 -31 19 -25 31 19 95 -208 84 -296 -6 -44 31 -143 81 -216 49 -70
49 -127 2 -106 -19 8 -66 20 -105 27 -65 12 -70 18 -64 77 15 143 14 143 -308
144 -160 0 -299 5 -309 11 -44 28 -279 -33 -279 -72 0 -30 15 -38 70 -38 83 0
94 34 15 46 -30 4 17 9 106 11 139 3 161 -2 165 -32 2 -19 6 -53 9 -75 3 -28
-7 -40 -35 -41 -22 -1 -62 -11 -89 -22 -59 -25 -121 -13 -121 23 0 27 -43 50
-92 50 -42 0 -40 -251 2 -267 17 -7 30 -28 31 -47 0 -34 1 -34 21 -1 22 38
218 53 218 16 0 -10 20 -21 45 -25 36 -5 46 -21 51 -78 6 -70 9 -73 85 -73 72
0 76 3 44 29 -32 26 -31 26 9 7 24 -12 80 -21 126 -21 l82 0 -6 95 -6 95 90
-6 c209 -14 282 -28 263 -51 -11 -13 -22 -45 -26 -73 -5 -34 -21 -52 -52 -56
-25 -4 -45 -15 -45 -24 0 -10 -16 -22 -35 -28 -20 -7 -44 -32 -55 -57 -24 -55
-124 -74 -142 -27 -9 23 -21 26 -49 12 -43 -23 -91 -9 -107 33 -8 20 -42 29
-107 29 -52 1 -153 2 -225 3 -72 1 -148 -4 -170 -10 -22 -7 -47 -13 -55 -13
-8 -1 -15 -11 -15 -22 0 -24 93 -27 108 -3 14 23 112 4 112 -21 0 -11 -21 -15
-48 -8 -56 14 -177 -24 -161 -50 7 -10 20 -14 30 -7 10 6 3 -15 -15 -46 -47
-84 -23 -170 44 -153 31 8 50 4 50 -10 0 -42 30 -22 56 37 17 38 37 55 55 48
16 -6 34 3 41 21 7 18 32 32 55 31 40 0 41 -2 8 -27 -50 -38 -25 -95 35 -80
53 13 130 -21 130 -58 0 -14 28 -28 61 -30 36 -3 57 3 50 15 -7 10 -25 14 -42
8 -20 -8 -29 2 -29 31 0 25 13 42 31 42 17 0 26 9 19 20 -7 11 2 20 19 20 17
0 30 -7 29 -15 -9 -53 8 -65 91 -65 101 0 170 65 91 86 -22 6 -40 2 -40 -8 0
-10 10 -18 21 -18 12 0 16 -9 9 -20 -18 -29 -90 13 -90 52 0 24 18 30 75 25
62 -6 78 1 95 38 13 31 37 45 74 45 29 0 59 9 66 20 17 27 50 26 50 -2 0 -12
-27 -32 -60 -44 -44 -17 -57 -32 -49 -58 7 -21 2 -36 -12 -36 -18 0 -18 -7 1
-30 19 -22 19 -30 1 -30 -13 0 -18 -9 -11 -20 13 -21 -10 -27 -83 -21 -45 4
-89 -42 -53 -54 38 -12 5 -77 -57 -113 -45 -27 -59 -29 -56 -9 7 53 -2 68 -41
68 -22 0 -40 -7 -40 -15 0 -9 -35 -16 -79 -16 -43 0 -85 -10 -92 -22 -8 -13
-56 -17 -131 -10 l-117 12 3 -70 c2 -65 7 -70 67 -70 35 0 75 -14 89 -30 21
-25 17 -30 -23 -30 -38 -1 -41 -4 -17 -20 38 -24 120 -26 120 -2 0 9 29 24 65
32 44 10 54 18 30 24 -19 5 -35 19 -35 31 0 12 6 16 13 8 8 -7 33 -1 55 14 51
32 192 57 192 34 0 -10 -27 -26 -60 -38 -33 -12 -60 -30 -60 -41 0 -12 -15
-15 -33 -8 -26 10 -31 4 -22 -30 6 -23 -1 -58 -15 -78 -35 -47 -1 -120 39 -87
18 15 53 16 109 4 45 -10 82 -14 82 -8 0 5 13 -1 29 -14 38 -31 10 -110 -41
-115 -98 -11 -120 -18 -143 -46 -29 -36 -64 1 -65 70 0 32 -4 34 -19 11 -15
-24 -27 -25 -75 -2 -51 25 -52 28 -16 39 87 26 53 63 -50 55 -94 -7 -111 2
-102 53 6 37 -78 102 -102 78 -13 -13 -15 -24 -4 -24 11 0 21 -19 23 -42 2
-35 -6 -41 -47 -33 -37 7 -48 3 -40 -18 6 -15 2 -27 -9 -27 -10 0 -19 -10 -19
-22 0 -12 14 -17 32 -10 62 24 72 -14 11 -40 -35 -14 -63 -36 -63 -48 0 -15
-12 -15 -42 1 -55 30 -75 6 -27 -31 37 -28 37 -31 4 -57 -50 -39 -43 -59 10
-29 25 14 80 34 124 46 77 20 123 70 64 70 -16 0 -34 -11 -40 -25 -5 -14 -11
-6 -11 18 -2 49 57 81 81 43 12 -19 16 -17 17 9 0 40 17 43 89 15 81 -30 67
-86 -20 -76 -54 6 -68 2 -60 -20 6 -15 11 -41 11 -58 0 -22 7 -25 25 -11 50
39 130 47 143 13 19 -49 -4 -68 -74 -60 -35 3 -78 -3 -97 -14 -24 -16 -41 -13
-66 12 -19 19 -58 33 -87 32 -30 0 -43 -6 -29 -11 14 -6 19 -20 12 -32 -7 -12
-4 -15 9 -8 11 8 27 5 34 -7 7 -11 3 -20 -9 -20 -11 0 -21 -14 -21 -31 0 -17
-11 -29 -25 -28 -67 8 -115 -27 -115 -83 0 -32 3 -58 6 -58 3 0 86 26 185 57
98 32 318 101 489 154 240 74 328 111 389 163 75 63 241 128 394 155 64 11
158 -93 215 -238 4 -12 18 -28 30 -36 15 -10 14 -14 -3 -15 -16 0 -25 -32 -25
-91 0 -56 -8 -87 -20 -79 -11 7 -20 29 -20 50 0 20 -18 43 -40 50 -27 8 -40
30 -40 66 -1 80 -77 146 -147 127 -10 -2 -28 3 -40 12 -13 10 -54 11 -93 4
-38 -8 -51 -15 -29 -16 69 -5 261 -68 234 -77 -36 -13 -31 -79 7 -94 37 -14
27 -62 -14 -62 -16 -1 -58 -22 -95 -48 -36 -25 -71 -41 -78 -34 -6 7 -33 -2
-59 -19 -28 -18 -66 -26 -92 -19 -35 10 -38 8 -14 -9 33 -23 -10 -70 -44 -48
-9 5 -64 -13 -122 -40 -58 -28 -130 -56 -160 -64 -30 -7 -54 -27 -54 -44 0
-24 -6 -25 -29 -6 -28 23 -185 -14 -241 -57 -11 -9 -38 -21 -60 -27 -22 -6
-58 -17 -80 -25 -40 -15 -40 -15 0 18 52 44 -56 27 -180 -29 -44 -20 -100 -42
-125 -49 -37 -10 -45 -27 -45 -91 0 -95 5 -95 120 -17 66 44 105 58 144 50 30
-6 80 2 110 17 31 16 128 43 216 62 88 18 196 50 240 70 44 20 139 51 210 68
257 63 290 74 399 130 61 32 147 73 191 93 44 19 87 38 95 43 8 4 5 -16 -8
-44 -13 -28 -35 -51 -50 -51 -43 0 -67 -71 -57 -173 8 -89 7 -94 -20 -58 -17
21 -30 73 -30 116 0 50 -8 73 -21 64 -12 -7 -20 -37 -18 -66 2 -29 2 -57 0
-63 -27 -74 9 -243 43 -209 5 5 9 -18 9 -51 0 -81 -24 -76 -72 15 -46 89 -50
71 -14 -65 15 -55 23 -112 18 -126 -5 -14 5 -104 23 -200 17 -96 36 -254 41
-352 6 -98 15 -182 20 -188 5 -5 1 -25 -10 -45 -13 -25 -11 -44 6 -63 26 -27
42 -223 17 -207 -7 4 -10 -23 -6 -60 5 -38 17 -69 28 -69 23 0 -1 -85 -29
-103 -32 -20 3 -57 41 -43 25 9 21 -2 -14 -41 -34 -37 -40 -53 -20 -53 23 -1
23 -4 -2 -20 -22 -14 -7 -19 55 -20 49 0 85 9 85 22 0 12 -14 17 -31 10 -18
-6 -26 -3 -19 8 7 11 -7 20 -30 20 -39 0 -40 3 -11 31 17 18 31 55 31 84 0 28
6 46 13 39 7 -8 25 -4 40 8 20 17 30 15 39 -10 12 -32 67 -45 70 -17 0 8 4 32
8 52 11 59 -12 97 -53 86 -20 -5 -43 0 -50 12 -8 12 -4 15 10 7 13 -8 23 -5
23 7 0 11 -18 21 -41 21 -38 0 -40 8 -27 95 16 112 16 167 -1 275 -7 44 -14
96 -16 115 -2 19 -11 35 -20 35 -10 0 -13 7 -8 15 10 16 -31 236 -63 338 -11
35 -15 69 -9 75 6 6 0 24 -14 41 -13 16 -19 39 -12 50 8 12 3 21 -10 21 -18 0
-18 7 -1 28 13 15 21 39 18 52 -3 14 4 29 17 34 13 4 29 -18 36 -51 7 -32 33
-76 57 -96 41 -35 42 -35 15 0 -19 24 -21 41 -8 50 32 20 22 161 -12 174 -26
9 -26 14 -2 29 23 14 24 23 4 47 -21 24 -18 32 17 43 58 18 64 8 30 -56 -30
-59 -18 -73 19 -22 19 26 28 2 51 -131 21 -127 37 -169 68 -185 23 -12 54 -35
70 -51 85 -85 252 -158 270 -118 6 15 17 11 31 -11 12 -19 39 -30 61 -26 22 4
40 -1 40 -11 0 -11 9 -19 20 -19 11 0 20 14 20 30 0 17 10 30 21 30 13 0 16
-17 8 -43 -9 -28 -6 -38 9 -28 12 7 22 6 22 -3 0 -9 29 -18 65 -21 36 -3 108
-10 160 -17 86 -11 94 -9 84 25 -11 34 -10 35 11 2 36 -57 236 -19 314 59 20
20 61 47 90 60 30 13 68 51 84 83 17 32 46 64 65 71 33 13 33 11 0 -25 -85
-94 25 -71 216 45 77 47 132 68 157 60 25 -8 34 -5 26 9 -8 13 28 42 84 71 54
27 124 81 156 119 32 39 83 100 113 136 34 41 53 84 48 111 -4 25 0 40 10 34
9 -6 17 -1 17 11 0 12 -16 27 -35 33 -19 6 -52 20 -72 31 -47 25 -59 12 -103
-115 -128 -366 -918 -715 -1390 -614 -71 15 -179 36 -240 46 -229 40 -391 126
-449 239 -74 141 -138 582 -89 612 12 8 18 35 13 61 -5 26 -2 42 8 36 24 -15
23 -10 -43 119 -77 152 -196 318 -219 304 -20 -13 -113 89 -177 193 -91 147
-189 476 -175 588 7 56 3 217 -9 357 -25 295 -32 277 103 274 201 -5 372 -89
235 -116 -43 -9 -53 -18 -35 -30 22 -13 22 -16 1 -17 -56 0 -244 -104 -244
-134 0 -23 11 -27 45 -16 25 8 104 18 175 21 l130 8 -69 -32 c-41 -18 -97 -26
-135 -20 -59 9 -63 7 -41 -27 40 -64 174 -52 235 21 6 7 27 18 47 26 21 7 33
25 26 42 -6 15 1 32 15 37 38 15 82 -119 51 -157 -13 -16 -31 -24 -40 -18 -9
5 -15 -9 -13 -32 2 -33 7 -36 23 -13 12 15 32 24 46 19 61 -20 31 266 -35 339
-34 36 -52 69 -41 72 40 14 -57 87 -150 115 -129 39 -267 37 -312 -4 -35 -32
-37 -28 -37 87 0 82 9 129 29 146 17 13 28 42 25 65 -3 29 18 54 66 83 l70 41
-35 -54 c-19 -29 -35 -59 -35 -66 0 -18 48 34 89 97 26 40 47 52 75 43 21 -7
49 -3 62 8 13 10 96 36 184 57 156 37 235 79 470 250 92 67 336 98 420 53 84
-44 88 -52 53 -87 -42 -42 -9 -95 53 -86 22 3 44 -5 49 -19 15 -44 -64 -27
-163 36 -53 34 -100 58 -104 54 -4 -4 42 -38 101 -76 60 -38 110 -79 110 -91
2 -45 85 -128 128 -128 65 0 99 -39 68 -77 -20 -24 -20 -28 0 -16 14 9 25 6
25 -6 0 -31 -21 -26 -100 21 l-70 42 59 -62 c55 -58 131 -84 131 -44 0 28 106
-6 116 -37 6 -16 0 -21 -13 -13 -38 24 -25 -10 17 -45 54 -45 87 -234 73 -424
-9 -134 -6 -154 28 -175 31 -19 35 -33 19 -75 -25 -65 -26 -61 10 -96 24 -24
26 -47 9 -126 -12 -53 -24 -125 -27 -159 -3 -34 -14 -74 -23 -90 -9 -15 -18
-43 -20 -62 -1 -20 -16 -51 -33 -71 -17 -19 -47 -73 -67 -119 -20 -47 -45 -79
-57 -72 -13 7 -13 2 1 -13 18 -19 14 -34 -17 -65 -21 -21 -34 -52 -28 -67 5
-15 2 -33 -9 -40 -10 -6 -19 -29 -19 -51 0 -22 -13 -44 -29 -50 -16 -6 -35
-40 -42 -75 -8 -35 -31 -84 -52 -111 -20 -26 -37 -59 -37 -74 0 -16 -13 -22
-30 -15 -33 13 -20 106 18 131 32 21 -33 80 -72 65 -18 -6 -38 -42 -45 -78
-13 -72 -69 -139 -73 -88 -1 15 -8 5 -16 -23 -11 -37 -26 -48 -58 -44 -28 4
-44 -4 -44 -22 0 -17 -20 -29 -49 -29 -26 0 -73 -19 -102 -42 -57 -45 -68 -44
-239 6 -55 16 -121 35 -147 43 -44 13 -46 10 -24 -30 28 -52 126 -116 205
-133 31 -7 63 -26 73 -43 13 -22 42 -29 110 -23 51 4 95 2 98 -5 3 -7 28 -4
55 7 28 12 67 19 87 16 23 -2 32 4 24 17 -12 19 2 26 40 20 6 0 34 14 63 32
28 19 45 24 37 12 -35 -56 57 -13 128 60 44 45 87 77 96 71 9 -6 18 9 20 33 2
24 16 53 32 64 27 20 173 379 173 425 0 11 19 64 43 117 44 98 97 503 99 758
1 66 11 156 22 200 12 44 27 130 34 190 9 79 20 110 42 110 41 0 71 51 41 70
-18 11 -14 38 18 108 63 139 18 474 -80 599 -21 27 -39 57 -39 66 0 43 -84
152 -99 129 -12 -19 -18 -18 -28 6 -7 21 -1 32 19 32 41 0 30 104 -12 115 -20
5 -22 2 -7 -8 16 -13 15 -24 -5 -43 -15 -14 -28 -18 -28 -10 -3 100 -147 517
-216 625 -3 5 -24 -2 -46 -15 -32 -21 -45 -20 -70 5 -39 39 -343 39 -518 0z
m491 -81 c117 -117 -9 -243 -265 -266 -126 -11 -244 -42 -159 -42 13 0 41 -18
63 -40 42 -42 100 -54 100 -20 0 11 26 -9 58 -45 32 -36 65 -59 72 -52 7 8 -6
33 -29 56 l-43 43 56 -10 c31 -5 61 -11 66 -13 6 -2 17 -2 26 -1 10 2 11 -6 5
-17 -12 -19 75 -109 111 -113 10 -2 28 -4 40 -5 16 -2 15 -13 -3 -35 -28 -33
0 -67 55 -68 13 0 30 -10 38 -23 10 -17 -5 -20 -54 -10 -39 7 -57 6 -42 -4 21
-13 19 -22 -6 -43 -27 -22 -36 -20 -62 17 -37 52 -62 55 -74 8 -6 -22 -10 -16
-12 18 -1 34 -26 74 -67 108 -36 31 -63 64 -60 74 4 10 -3 12 -15 5 -11 -7
-46 6 -78 29 -70 50 -90 52 -74 8 11 -27 8 -29 -18 -7 -17 14 -35 22 -40 17
-5 -5 50 -44 121 -86 149 -86 162 -120 18 -43 -69 36 -105 45 -130 31 -25 -13
-38 -10 -47 12 -9 24 -20 26 -51 10 -35 -19 -227 -10 -266 12 -8 5 -47 3 -86
-5 -127 -23 -50 -62 136 -69 31 -1 51 -10 44 -20 -6 -11 9 -19 33 -19 72 0 23
-29 -54 -31 -51 -2 -76 8 -91 37 -13 24 -26 31 -34 18 -40 -65 -506 -69 -643
-6 -46 21 -45 22 22 12 63 -9 71 -6 70 33 -1 23 9 47 23 52 14 4 25 -4 25 -19
0 -26 119 -64 270 -87 53 -7 51 -6 -10 13 -124 37 -138 74 -24 63 116 -11 151
20 69 62 -42 22 -79 25 -145 12 -132 -25 -147 -24 -116 8 13 15 41 23 60 18
41 -11 51 46 11 62 -14 5 2 10 35 11 46 1 53 -3 30 -18 -18 -12 -20 -20 -6
-20 13 0 29 9 36 20 7 12 21 15 31 9 11 -6 19 -4 19 6 0 21 331 20 352 -1 8
-7 -8 -14 -36 -14 -140 0 -91 -52 53 -57 85 -3 153 4 160 16 8 12 1 16 -18 9
-17 -7 -31 -2 -31 10 0 12 -11 22 -26 22 -50 0 -121 64 -91 82 18 12 1 17 -49
18 -46 0 -71 -8 -64 -20 7 -11 3 -20 -9 -20 -12 0 -27 12 -33 27 -7 20 -45 25
-144 21 -146 -7 -138 21 13 44 59 9 78 19 60 30 -51 33 29 19 113 -19 44 -20
105 -43 136 -50 31 -8 50 -23 44 -33 -12 -19 125 -90 158 -82 10 2 25 -7 34
-21 9 -14 21 -20 28 -13 17 16 -70 116 -102 116 -106 0 -339 197 -291 245 12
12 29 16 37 8 8 -9 2 -24 -15 -34 -24 -15 -23 -18 7 -19 20 0 62 19 93 43 140
103 594 133 682 45z m202 -216 c60 -146 71 -212 35 -212 -12 0 -18 11 -13 25
8 24 -65 95 -97 95 -9 0 2 -13 23 -29 35 -27 36 -30 4 -30 -19 -1 -36 10 -37
24 -2 14 -4 36 -5 49 -2 13 -18 36 -37 50 -30 23 -31 36 -10 101 34 108 71 88
137 -73z m-1263 88 c-27 -9 -40 -17 -27 -18 12 -1 28 -16 35 -33 6 -17 4 -26
-6 -20 -75 46 -296 -137 -252 -209 7 -11 -1 -14 -19 -8 -20 8 -37 -5 -50 -40
-23 -61 -50 -71 -31 -12 15 46 1 49 -88 18 -58 -21 -61 -25 -28 -49 54 -39 22
-52 -43 -18 -46 24 -61 25 -74 5 -17 -29 32 -65 63 -46 11 7 20 8 20 2 0 -6
-29 -26 -65 -45 -54 -27 -61 -28 -40 -3 25 30 -12 92 -39 66 -37 -38 27 180
65 222 58 60 286 173 352 173 26 0 53 8 59 18 5 9 57 16 114 15 82 -2 93 -5
54 -18z m-377 -514 c23 -29 23 -31 -3 -16 -26 15 -26 13 -3 -15 21 -26 37 -29
79 -13 31 12 96 14 154 6 l100 -15 -96 -28 c-80 -23 -92 -33 -73 -57 21 -24
28 -24 52 7 26 33 28 33 48 0 12 -20 30 -31 40 -24 10 6 13 -5 7 -25 -10 -33
-9 -33 20 2 17 21 25 47 18 58 -7 11 -2 14 11 6 13 -8 34 -7 48 1 17 10 9 20
-25 29 -41 11 -35 14 32 16 46 1 130 11 187 22 166 31 233 6 127 -48 -45 -23
-122 -67 -171 -97 -69 -43 -119 -57 -212 -60 -79 -3 -126 -14 -133 -31 -10
-27 -44 -23 -157 21 -47 18 -51 24 -25 39 18 10 32 31 32 46 0 17 12 24 30 17
19 -7 30 1 30 21 0 38 -41 42 -79 7 -16 -15 -22 -16 -14 -2 16 29 -88 57 -106
29 -7 -12 -23 -13 -41 -2 -19 12 -41 7 -65 -14 -32 -29 -35 -29 -35 -1 0 18
-14 46 -31 64 -18 17 -23 31 -11 31 11 0 27 -13 36 -29 12 -20 26 -23 46 -10
25 15 25 18 2 19 -54 0 -3 26 62 31 36 3 68 15 72 27 10 29 14 28 47 -12z
m1686 -67 c-4 -8 -33 -11 -64 -8 -49 6 -51 3 -20 -19 30 -23 27 -26 -30 -28
-46 -1 -55 3 -34 17 16 10 20 19 9 19 -11 0 -6 9 10 20 33 21 142 20 129 -1z
m-1735 -113 c7 -19 3 -37 -10 -41 -13 -5 14 -28 60 -53 141 -74 71 -154 -102
-115 -48 11 -82 11 -82 1 0 -10 -19 -18 -42 -18 -55 0 -18 51 49 67 28 8 46
28 47 57 l4 46 -37 -45 c-49 -59 -132 -64 -102 -6 12 21 46 51 76 66 30 15 53
38 50 51 -8 37 75 28 89 -10z m1772 -53 c-8 20 22 1 65 -43 43 -44 97 -91 119
-104 39 -23 39 -24 -4 -25 -24 0 -50 -11 -57 -23 -9 -15 -18 -15 -27 -2 -24
39 -124 53 -110 15 7 -18 24 -29 38 -24 17 7 22 -3 15 -29 -8 -30 -16 -34 -37
-17 -14 12 -36 17 -47 10 -12 -8 -16 0 -8 19 14 37 -107 156 -139 136 -11 -7
-14 -2 -6 11 8 13 3 23 -10 23 -14 0 -20 5 -14 11 6 6 44 -9 83 -32 83 -49 96
-28 25 39 -88 83 -44 135 50 60 58 -45 74 -52 64 -25z m-306 19 c0 -36 -61
-59 -87 -33 -16 16 22 45 82 60 3 0 5 -12 5 -27z m-1420 -229 c0 -8 -30 -28
-67 -45 -63 -28 -67 -28 -58 4 6 22 20 31 40 23 18 -7 26 -3 20 7 -7 11 5 21
26 23 22 1 39 -4 39 -12z m1870 -140 c-12 -12 -70 38 -70 61 0 10 9 13 20 6
11 -7 21 4 22 24 1 21 9 11 19 -23 10 -32 14 -63 9 -68z m-2463 -447 c28 -22
50 -27 65 -14 26 21 88 4 88 -25 0 -10 -23 -28 -51 -41 -42 -19 -46 -26 -20
-41 60 -33 32 -62 -86 -84 -22 -5 -59 -27 -82 -50 -22 -22 -52 -40 -66 -39
-19 1 -19 4 -1 11 13 5 19 21 14 35 -12 32 75 92 136 93 l46 2 -43 20 c-56 28
-85 96 -72 168 7 35 15 47 21 29 5 -16 28 -45 51 -64z m-197 -156 c32 0 34 -4
11 -19 -16 -10 -36 -14 -45 -8 -27 16 -18 -9 16 -43 62 -61 21 -59 -90 5 -4 2
5 19 20 38 25 30 24 33 -7 21 -20 -7 -35 -3 -35 9 0 13 19 17 45 10 25 -7 63
-13 85 -13z m625 -35 c4 -12 -2 -27 -14 -34 -12 -8 -21 -4 -21 8 0 11 -13 21
-30 21 -16 0 -30 9 -30 20 0 26 86 13 95 -15z m-567 -427 c-16 -27 -156 -36
-185 -12 -23 19 -31 19 -38 -1 -5 -14 -17 -20 -27 -14 -10 6 -40 -13 -67 -42
-28 -30 -63 -49 -79 -43 -16 7 -49 -6 -74 -27 -70 -62 -68 -29 3 49 48 52 72
66 90 51 18 -14 35 -10 60 15 23 23 63 34 117 33 45 -1 99 10 119 24 37 26
101 -1 81 -33z m172 -58 c25 -16 25 -23 3 -37 -14 -10 -23 -25 -20 -35 4 -10
-15 -21 -43 -25 -49 -6 -49 -6 -10 27 36 30 36 32 3 22 -20 -7 -49 -12 -65
-12 -15 0 -28 -10 -28 -21 0 -47 -55 -80 -66 -40 -20 79 151 170 226 121z
m382 -185 c2 -14 1 -36 0 -49 -2 -12 16 -26 39 -30 39 -6 39 -8 9 -46 -18 -22
-27 -29 -20 -15 7 14 4 25 -6 25 -22 0 -72 -101 -67 -133 2 -13 -5 -30 -16
-37 -12 -7 -21 -21 -21 -31 0 -26 126 -17 145 10 9 14 14 12 15 -4 0 -14 18
-25 40 -25 66 0 43 -38 -65 -109 -30 -19 -50 -43 -44 -53 18 -29 -48 -83 -107
-86 -66 -3 -109 -28 -93 -53 6 -11 2 -19 -8 -19 -11 0 -23 -20 -27 -45 -3 -26
-12 -36 -20 -24 -8 12 -2 44 12 72 34 65 -18 141 -85 124 -25 -7 -43 -2 -43
11 0 12 10 22 21 22 12 0 20 20 18 45 -8 105 2 131 66 162 40 20 51 32 30 33
-19 0 -35 9 -35 20 0 11 20 16 45 11 25 -4 52 -9 61 -10 9 0 3 -15 -15 -32
-17 -18 -31 -41 -31 -53 0 -13 -11 -11 -30 4 -42 35 -41 -22 2 -112 26 -55 39
-64 60 -46 32 26 39 87 8 68 -11 -7 -20 3 -20 21 0 24 12 31 42 23 33 -9 38
-4 26 22 -28 65 -9 171 42 224 62 65 68 129 10 114 -22 -6 -40 -2 -40 8 0 28
100 21 102 -7z m-173 -134 c6 -10 2 -24 -10 -31 -29 -19 -84 5 -69 30 16 25
64 26 79 1z m331 -334 c0 -19 -66 -66 -95 -66 -16 -1 -13 12 10 39 32 38 85
55 85 27z m-514 -311 c-21 -23 -38 -30 -42 -17 -14 41 14 81 46 68 28 -11 28
-16 -4 -51z m594 -312 c0 -17 -123 -68 -135 -55 -9 8 94 69 120 70 8 1 15 -6
15 -15z"/>
<path d="M2160 5651 l50 -30 -50 -2 c-27 -1 -39 -7 -25 -12 14 -6 26 -25 26
-44 2 -26 5 -24 17 7 15 38 17 38 31 -6 10 -34 21 -41 39 -26 14 12 123 25
243 30 121 5 224 10 229 11 6 2 -27 20 -73 41 -108 51 -570 81 -487 31z"/>
<path d="M1730 5309 c84 -38 122 -38 90 1 -14 17 -53 29 -87 28 l-63 -1 60
-28z"/>
<path d="M2673 5220 c20 -33 43 -60 51 -60 9 0 16 -19 16 -41 0 -23 9 -36 20
-29 46 29 20 106 -51 148 l-71 42 35 -60z"/>
<path d="M1725 4967 c-29 -12 -34 -87 -6 -87 24 0 81 57 81 81 0 20 -34 22
-75 6z"/>
<path d="M4031 4722 c-25 -10 -31 -20 -16 -29 31 -19 128 6 114 29 -13 21 -44
21 -98 0z"/>
<path d="M2164 4667 c-52 -23 -51 -24 36 -23 141 0 213 27 104 38 -47 5 -110
-2 -140 -15z"/>
<path d="M4020 4640 c0 -11 27 -20 60 -20 33 0 60 9 60 20 0 11 -27 20 -60 20
-33 0 -60 -9 -60 -20z"/>
<path d="M1909 4599 c-7 -12 -9 -25 -5 -30 14 -13 96 15 96 33 0 25 -75 22
-91 -3z"/>
<path d="M840 4549 c0 -34 13 -79 29 -100 28 -38 29 -38 26 5 -2 24 -11 38
-21 32 -10 -6 -13 6 -7 26 7 21 3 52 -7 68 -15 23 -19 16 -20 -31z"/>
<path d="M2370 4537 c-208 -38 -292 -79 -413 -203 -37 -38 -88 -75 -114 -83
-51 -16 -43 -35 17 -45 21 -3 46 -7 54 -9 29 -5 146 47 146 65 0 10 10 18 21
18 12 0 95 36 185 80 154 75 403 103 364 40 -10 -16 90 -66 104 -52 71 70
-212 218 -364 189z"/>
<path d="M4740 4541 c0 -10 27 -18 60 -17 33 1 60 10 60 19 0 9 -27 17 -60 17
-33 0 -60 -8 -60 -19z"/>
<path d="M3626 4185 c6 -162 16 -293 22 -290 7 3 22 5 34 5 17 0 16 8 -1 28
-26 32 4 64 39 42 11 -7 30 -6 42 1 16 10 14 19 -5 31 -20 13 -20 17 -2 18 14
0 25 25 25 60 0 35 -11 60 -25 60 -16 1 -18 6 -4 15 17 13 20 105 11 290 -2
27 -19 35 -74 35 l-72 0 10 -295z"/>
<path d="M5883 4446 c-2 -13 -21 -20 -43 -16 -22 4 -40 -1 -40 -11 0 -11 13
-19 28 -19 16 0 33 -11 38 -25 14 -41 38 -2 28 48 -5 26 -10 36 -11 23z"/>
<path d="M3980 4343 c0 -45 9 -83 20 -83 21 0 16 131 -6 153 -8 7 -14 -24 -14
-70z"/>
<path d="M3407 4347 c7 -8 -2 -37 -20 -64 -23 -36 -26 -53 -10 -59 108 -36 93
-193 -17 -174 -101 17 -114 -42 -20 -97 37 -21 60 -52 60 -77 0 -58 26 -28 52
61 12 42 32 71 47 67 20 -4 23 14 12 80 -8 47 -19 118 -25 156 -12 75 -38 120
-72 120 -11 0 -15 -6 -7 -13z"/>
<path d="M2400 4265 c-27 -5 -54 -16 -60 -25 -13 -20 -197 -160 -211 -160 -12
0 3 92 21 120 17 27 -10 24 -70 -9 -38 -21 -57 -22 -79 -4 -22 18 -25 17 -14
-2 10 -17 2 -25 -25 -25 -22 0 -45 -9 -52 -20 -7 -11 -5 -20 5 -20 10 0 17
-67 16 -150 0 -82 -6 -150 -12 -150 -20 0 -18 -90 3 -155 24 -74 39 -79 84
-29 21 23 28 53 20 85 -11 42 -9 46 18 24 41 -34 34 38 -12 125 -24 46 -26 62
-7 68 14 5 35 23 48 40 20 27 30 27 73 4 50 -26 161 -23 359 10 46 8 75 4 75
-8 0 -37 -141 -69 -248 -57 -110 13 -201 -16 -111 -35 222 -46 343 -19 435 97
22 28 46 51 54 51 8 0 40 28 72 62 51 55 63 59 91 35 29 -23 32 -23 23 3 -7
23 -35 28 -114 23 -91 -6 -110 0 -152 45 -26 29 -66 52 -87 52 -22 0 -52 3
-66 7 -15 4 -49 3 -77 -2z m192 -106 c42 -36 15 -58 -57 -46 -36 6 -112 2
-170 -8 -128 -24 -137 2 -20 57 89 41 195 40 247 -3z m-252 -147 c0 -15 -25
-25 -62 -25 l-62 0 46 35 c49 37 78 33 78 -10z"/>
<path d="M5860 4170 c0 -19 -16 -28 -45 -25 -25 3 -43 -5 -41 -18 3 -13 -10
-35 -28 -50 -19 -15 -28 -17 -20 -4 8 13 0 28 -16 34 -20 8 -34 -5 -43 -42 -8
-33 -5 -56 10 -61 13 -4 23 -17 23 -29 0 -12 29 -47 64 -78 35 -31 56 -57 46
-57 -9 0 -34 15 -54 34 -36 32 -38 31 -49 -10 -6 -24 -20 -39 -29 -33 -10 6
-18 2 -18 -10 0 -11 -15 -21 -33 -21 -19 0 -28 -5 -22 -12 7 -7 4 -34 -6 -60
-20 -53 3 -64 39 -20 13 15 40 32 61 38 53 13 36 -64 -24 -110 -62 -48 -68
-46 -106 34 -18 38 -41 65 -50 59 -9 -5 -13 26 -7 71 7 59 2 84 -20 92 -16 6
-25 24 -19 40 7 17 -1 28 -22 28 -59 0 -70 -82 -17 -132 34 -31 40 -47 22 -54
-21 -9 -21 -11 0 -12 15 -1 21 -11 13 -23 -7 -11 -2 -34 12 -50 19 -23 18 -29
-9 -29 -17 0 -32 9 -32 20 0 11 -14 20 -31 20 -17 0 -29 11 -26 25 9 49 -26
123 -44 93 -10 -16 -28 -28 -42 -28 -13 0 -27 -11 -32 -25 -5 -14 5 -25 21
-25 36 0 61 -54 29 -65 -19 -6 -26 -28 -39 -130 -1 -14 -11 -25 -21 -25 -11 0
-14 13 -8 29 28 73 -131 89 -189 18 -18 -21 -45 -26 -92 -18 -40 8 -66 5 -66
-8 0 -12 -14 -21 -31 -21 -17 0 -26 -8 -20 -18 6 -10 34 -16 62 -13 72 8 33
-21 -48 -36 -59 -11 -65 -9 -43 17 21 26 16 30 -38 30 -51 0 -62 8 -63 45 0
44 -2 43 -50 -11 -27 -31 -58 -51 -69 -44 -11 7 -20 -2 -20 -19 0 -29 -6 -29
-59 -2 -32 17 -64 31 -70 31 -22 0 -10 -77 14 -87 15 -6 11 -10 -10 -11 -19
-1 -35 -11 -35 -22 0 -32 -55 -23 -68 12 -17 44 -16 48 18 48 17 0 30 13 30
28 0 16 9 32 19 35 13 5 13 18 0 37 -15 24 -22 25 -36 4 -13 -21 -22 -20 -42
5 -23 28 -16 39 22 34 7 -1 8 17 2 39 -7 28 -22 38 -48 31 -23 -6 -37 1 -37
19 0 15 10 28 21 28 12 0 16 9 10 19 -7 11 -27 14 -45 7 -23 -9 -28 -5 -16 14
11 18 8 21 -8 11 -19 -11 -18 -21 1 -44 20 -24 19 -34 -4 -49 -24 -16 -22 -23
11 -42 37 -22 36 -24 -19 -39 -68 -18 -68 -18 -77 39 -3 23 -14 50 -23 58 -9
9 -12 -15 -5 -54 6 -38 7 -59 1 -45 -6 14 -19 25 -29 25 -29 0 -21 -53 13 -81
17 -14 26 -37 21 -51 -6 -16 1 -22 19 -15 16 6 29 28 29 49 0 26 14 38 45 38
32 -1 37 -5 18 -18 -14 -9 -23 -22 -20 -29 4 -6 -8 -29 -26 -51 -19 -21 -29
-44 -22 -50 6 -6 22 3 35 21 21 30 25 29 35 -10 6 -24 3 -38 -7 -32 -10 6 -18
2 -18 -10 0 -11 9 -21 20 -21 11 0 20 -9 20 -19 0 -11 -16 -14 -35 -7 -25 9
-29 6 -14 -11 27 -30 280 17 354 66 42 27 108 36 309 42 141 4 346 21 456 38
110 18 286 41 390 52 302 31 276 10 277 219 1 111 -6 177 -18 169 -11 -6 -15
-33 -11 -60 5 -27 1 -54 -10 -60 -10 -6 -14 -20 -7 -30 6 -10 -2 -14 -17 -8
-16 6 -34 -3 -41 -20 -7 -19 -1 -31 18 -31 30 0 39 -24 16 -46 -7 -8 -27 -2
-44 11 -25 21 -28 19 -18 -8 16 -44 -3 -61 -35 -31 -17 16 -20 36 -8 57 12 24
9 32 -15 30 -18 -2 -37 10 -43 25 -7 20 1 24 25 15 22 -8 32 -5 26 12 -9 26 2
42 93 137 58 60 41 127 -19 77 -13 -10 -29 -13 -36 -5 -7 7 -13 2 -13 -11 0
-28 -53 -31 -70 -3 -7 12 -2 19 11 15 13 -3 29 8 34 23 6 17 1 22 -12 14 -14
-9 -23 0 -23 23 0 21 14 38 30 38 17 0 30 -6 30 -14 0 -8 15 -20 32 -27 25
-10 30 -3 22 28 -8 32 0 40 43 42 l53 2 -50 14 c-53 15 -33 41 25 31 23 -4 35
8 35 33 0 25 -14 38 -41 38 -23 0 -36 -9 -29 -20 7 -11 3 -20 -9 -20 -11 0
-21 9 -21 20 0 11 -9 20 -20 20 -11 0 -20 -13 -20 -30z"/>
<path d="M1740 4118 c0 -44 51 -52 66 -10 7 17 -4 32 -27 38 -29 8 -39 0 -39
-28z"/>
<path d="M4602 4082 c-16 -10 -39 -14 -53 -9 -37 14 -130 -80 -110 -112 13
-20 21 -18 38 14 12 22 15 47 7 57 -8 9 2 5 21 -10 19 -15 30 -34 25 -43 -6
-8 1 -20 15 -26 17 -6 17 -10 2 -11 -14 -1 -19 -20 -12 -44 6 -23 0 -49 -14
-58 -36 -22 34 -126 74 -111 17 7 41 2 55 -9 18 -15 23 -9 20 25 -7 63 -7 63
-40 35 -17 -14 -37 -20 -44 -13 -7 7 -1 13 13 13 15 0 20 13 13 31 -6 17 -3
26 7 20 10 -7 23 -3 30 7 16 26 -41 42 -65 18 -15 -15 -16 1 -5 51 10 42 9 68
-1 62 -10 -6 -18 -2 -18 10 0 11 32 21 71 21 49 0 67 -7 57 -23 -9 -14 -5 -18
8 -9 31 19 5 77 -29 64 -38 -15 -34 8 8 40 43 33 -23 41 -73 10z"/>
<path d="M5240 4015 c0 -8 14 -15 30 -15 17 0 30 -18 30 -42 0 -57 49 -37 56
24 5 41 -2 48 -55 48 -34 0 -61 -7 -61 -15z"/>
<path d="M5453 4027 c-25 -26 -13 -47 27 -47 22 0 40 13 40 30 0 30 -42 41
-67 17z"/>
<path d="M1208 3929 c-7 -28 -8 -56 -2 -62 21 -21 68 42 59 77 -14 52 -42 44
-57 -15z"/>
<path d="M4704 3906 c-36 -65 -31 -102 8 -63 17 18 28 49 24 70 -7 34 -10 34
-32 -7z"/>
<path d="M5123 3870 c-24 -40 -43 -81 -43 -92 0 -11 -8 -15 -18 -9 -10 6 -13
-8 -7 -32 10 -37 5 -42 -32 -32 -24 6 -43 4 -43 -5 0 -8 20 -21 45 -28 38 -10
40 -15 15 -32 -45 -29 3 -23 59 9 27 14 62 22 78 15 20 -7 26 -1 19 18 -6 16
1 46 16 67 31 42 20 74 -21 59 -51 -20 -53 32 -2 55 55 25 58 63 7 73 -18 3
-49 -24 -73 -66z m17 -128 c0 -21 -12 -42 -27 -48 -22 -9 -33 47 -16 81 12 22
43 -3 43 -33z"/>
<path d="M4771 3849 c4 -51 -4 -77 -30 -93 -31 -19 -32 -28 -10 -50 36 -36 47
-33 36 11 -8 30 2 36 62 34 39 -1 71 4 71 12 0 7 5 28 12 45 9 23 0 32 -29 32
-23 0 -51 18 -63 40 -33 62 -57 47 -49 -31z"/>
<path d="M5557 3886 c-21 -26 -21 -30 -1 -18 17 10 36 3 52 -19 30 -40 64 -8
44 42 -15 39 -61 37 -95 -5z"/>
<path d="M4409 3789 c-29 -24 -31 -30 -6 -22 30 9 30 5 2 -51 -36 -73 0 -115
56 -65 18 16 43 29 56 29 12 0 23 14 23 30 0 17 -14 30 -31 30 -16 0 -37 18
-45 40 -14 38 -18 39 -55 9z"/>
<path d="M3821 3683 c-15 -28 -15 -45 0 -54 14 -8 14 -21 -2 -41 -34 -41 28
-38 70 3 38 39 39 34 -8 87 -38 44 -38 44 -60 5z"/>
<path d="M3065 3687 c-14 -6 -25 -28 -25 -50 0 -55 49 -36 52 20 2 23 2 42 0
41 -1 0 -13 -6 -27 -11z"/>
<path d="M4844 3652 c-60 -21 -103 -60 -104 -96 0 -33 82 -37 114 -5 32 32 31
33 -12 19 -30 -9 -43 -7 -34 6 7 11 1 26 -13 32 -14 7 7 8 45 3 54 -8 189 42
139 51 -5 0 -22 4 -39 7 -16 3 -60 -5 -96 -17z"/>
<path d="M4538 3655 c-24 -52 -7 -128 27 -120 25 7 35 23 29 47 -6 20 -1 35
11 32 11 -2 24 7 29 21 8 20 -87 40 -96 20z"/>
<path d="M2039 3635 c-12 -48 -9 -155 4 -155 9 0 17 9 17 19 0 31 78 64 119
51 48 -15 74 -120 40 -161 -33 -39 -139 -39 -139 1 0 64 -176 -29 -179 -94 -2
-34 -151 -8 -185 32 -29 35 -35 37 -35 9 -1 -19 -6 -46 -12 -62 -10 -28 24
-51 141 -98 145 -58 230 -35 417 110 124 96 213 100 213 9 0 -24 9 -33 23 -24
16 10 20 4 11 -19 -7 -18 -4 -33 7 -33 10 0 19 9 19 20 0 11 16 19 35 18 21
-1 25 -5 10 -11 -17 -7 -19 -21 -5 -47 26 -48 8 -53 -222 -71 -103 -8 -210
-23 -238 -34 -27 -11 -131 -27 -230 -35 -99 -9 -193 -19 -210 -23 -20 -5 -32
11 -36 48 -4 33 3 55 18 55 15 0 10 16 -14 42 -34 38 -35 44 -5 65 21 15 33
55 33 111 1 48 15 101 33 121 17 19 31 45 31 59 0 45 -68 13 -99 -47 -17 -33
-47 -77 -67 -100 -19 -22 -41 -63 -48 -91 -7 -27 -38 -75 -69 -105 -72 -70
-71 -94 3 -165 53 -51 60 -53 61 -19 0 35 3 36 25 7 13 -18 54 -39 90 -47 42
-9 81 -38 112 -84 26 -39 51 -59 56 -46 5 17 29 14 86 -10 106 -44 410 20 410
87 0 24 -106 0 -130 -29 -32 -39 -204 -54 -217 -19 -6 16 -25 24 -41 18 -17
-6 -38 6 -50 29 -35 65 -28 84 25 64 30 -11 55 -11 68 2 14 14 34 13 63 -2 32
-17 42 -17 42 1 0 15 23 19 70 12 38 -6 75 -2 82 9 6 11 26 14 43 8 16 -6 41
3 55 22 37 51 65 17 60 -72 -10 -186 -362 -322 -517 -200 -63 50 -70 18 -14
-60 22 -31 35 -60 29 -66 -6 -6 8 -17 31 -25 31 -9 39 -24 30 -52 -7 -22 -2
-38 11 -38 12 0 17 9 10 20 -14 23 16 27 37 6 16 -15 192 -9 220 8 9 6 7 17
-6 25 -12 8 5 14 38 14 35 0 61 -10 61 -24 0 -40 149 20 157 64 7 35 6 35 -31
2 -73 -66 -95 -24 -24 47 39 39 42 40 67 5 30 -40 188 90 161 132 -20 34 -37
24 -88 -49 -34 -51 -54 -65 -72 -50 -13 11 -31 13 -40 5 -9 -8 -10 3 -2 25 12
34 6 32 -42 -12 -31 -29 -83 -59 -116 -66 -52 -11 -55 -10 -20 10 118 68 209
201 170 248 -25 30 6 61 40 40 10 -6 71 38 135 100 70 67 128 108 148 103 36
-9 71 72 36 84 -10 3 -19 17 -19 30 0 13 -18 40 -40 58 -22 19 -40 25 -40 12
0 -16 -7 -16 -27 0 -15 13 -32 17 -40 10 -14 -15 -254 146 -279 186 -18 31
-250 105 -255 82z"/>
<path d="M3612 3585 c-23 -23 -12 -44 18 -32 35 13 38 -1 9 -55 -30 -56 -3
-88 40 -48 20 17 47 29 61 26 14 -3 29 5 34 19 5 14 -4 25 -21 25 -17 0 -38
12 -47 27 -19 31 -77 55 -94 38z"/>
<path d="M3225 3475 c-10 -58 -14 -112 -9 -122 9 -17 144 121 144 148 0 9 11
20 25 25 14 4 9 6 -10 3 -20 -3 -48 7 -64 23 -48 48 -67 31 -86 -77z"/>
<path d="M2848 3483 c-22 -19 -37 -46 -32 -62 6 -18 -1 -23 -23 -15 -17 7 -37
4 -44 -7 -6 -10 2 -19 18 -19 17 0 36 -19 44 -43 9 -29 18 -35 28 -18 11 16
20 9 28 -22 22 -84 16 -122 -19 -109 -23 9 -29 4 -21 -16 6 -16 -1 -39 -16
-51 -15 -12 -33 -56 -40 -97 -8 -41 -26 -93 -41 -116 -15 -24 -27 -73 -27
-110 0 -38 -6 -115 -14 -173 -15 -109 3 -134 46 -65 18 29 19 40 2 40 -38 0
-3 172 55 263 149 236 194 732 56 620z"/>
<path d="M5880 3377 c-49 -10 -110 -13 -135 -7 -25 6 -45 4 -45 -5 0 -17 -182
-65 -295 -78 -36 -5 -65 1 -65 13 0 11 21 20 47 20 27 0 46 12 46 29 0 22 -8
24 -38 8 -21 -11 -49 -16 -62 -11 -13 5 -36 -5 -52 -22 -26 -28 -26 -30 5 -18
48 18 43 -20 -6 -46 -33 -17 -40 -15 -40 12 0 26 -13 30 -62 21 -35 -7 -93
-13 -130 -13 -59 0 -68 -7 -68 -50 0 -82 -87 -68 -129 20 -18 39 -43 70 -56
70 -17 0 -17 -6 1 -24 30 -30 31 -56 3 -56 -11 0 -45 -18 -75 -40 -30 -21 -72
-43 -94 -47 -22 -4 -53 -12 -70 -18 -68 -26 -120 -30 -120 -11 0 24 -128 8
-214 -27 -31 -13 -76 -21 -101 -19 -33 4 -42 -3 -33 -27 7 -17 2 -31 -10 -31
-12 0 -22 9 -22 20 0 11 -9 20 -20 20 -11 0 -20 -13 -20 -30 0 -39 -99 -64
-120 -30 -9 14 -25 19 -36 12 -12 -7 -27 -3 -35 10 -10 16 -19 15 -30 -4 -25
-40 -1 -61 42 -37 22 11 39 12 39 2 0 -10 -16 -23 -35 -28 -19 -6 -51 -17 -70
-25 -25 -10 -35 -5 -35 19 0 18 -9 28 -20 21 -12 -7 -16 -20 -10 -29 5 -9 -4
-22 -22 -29 -44 -17 -52 -15 -38 8 16 26 15 26 -130 -12 -68 -17 -140 -48
-162 -70 -21 -21 -52 -38 -70 -38 -25 0 -28 -13 -17 -65 18 -86 25 -95 60 -82
42 16 38 -66 -4 -90 -30 -16 -29 -24 10 -88 67 -109 103 -132 103 -67 0 39 10
52 40 52 22 0 40 8 40 18 0 10 -16 14 -35 10 -58 -14 -98 22 -66 60 14 17 33
27 43 21 9 -6 34 -2 54 9 45 24 107 -52 64 -78 -50 -31 -5 -249 59 -286 67
-40 81 -3 81 219 0 127 0 127 58 127 55 0 58 -5 71 -110 8 -61 22 -106 31
-100 10 6 24 0 31 -12 8 -12 3 -30 -11 -38 -15 -9 -21 -34 -14 -60 17 -66 -2
-97 -52 -85 -24 6 -37 3 -28 -6 18 -20 159 -61 304 -89 55 -10 131 -25 170
-32 63 -13 67 -11 42 19 -24 29 -21 33 28 33 49 0 52 -4 27 -33 -23 -29 -23
-32 3 -23 17 6 44 0 60 -14 17 -14 53 -31 80 -38 48 -13 48 -12 -5 18 -75 42
-56 99 45 136 18 7 20 11 5 12 -32 2 -33 42 -2 42 13 0 41 -15 61 -34 33 -29
36 -30 25 -2 -6 18 -2 38 10 45 11 7 21 2 22 -13 0 -15 9 -10 22 11 15 26 16
122 5 310 -10 150 -16 309 -13 353 l4 81 -129 -1 c-89 0 -130 -8 -130 -25 0
-32 -86 -52 -170 -39 -54 9 -73 2 -96 -32 -23 -36 -47 -43 -139 -41 -90 1
-114 -5 -121 -33 -10 -40 -90 -59 -197 -47 -59 7 -77 2 -77 -21 0 -68 -195
-98 -216 -34 -7 20 3 25 32 17 28 -7 43 1 50 27 6 23 35 43 72 51 34 6 62 21
62 32 0 11 22 14 52 6 35 -8 83 2 145 32 53 26 120 43 158 40 36 -4 65 3 65
15 0 21 115 56 190 58 22 0 82 19 133 41 54 23 100 32 110 22 11 -11 42 -6 75
12 73 37 112 37 112 -2 0 -16 16 -36 35 -43 58 -22 64 -47 65 -286 1 -126 8
-270 17 -320 l16 -90 15 111 c9 61 11 209 6 329 -6 120 -2 204 7 188 9 -16 22
-205 29 -419 7 -214 17 -393 22 -397 32 -32 34 27 22 633 -7 328 -3 445 14
445 25 0 33 -40 36 -180 1 -49 6 -70 10 -45 13 67 82 98 117 52 15 -21 28 -28
28 -16 1 32 -43 69 -83 69 -47 0 -46 33 3 59 80 43 121 27 121 -49 0 -38 2
-70 5 -70 3 0 34 8 70 19 36 10 65 12 65 4 0 -26 -78 -62 -109 -51 -22 9 -31
0 -31 -30 0 -23 9 -42 20 -42 11 0 20 10 20 21 0 12 9 16 20 9 11 -7 20 -46
20 -88 0 -42 13 -120 30 -174 38 -127 38 -181 -3 -196 -39 -15 -85 40 -86 103
-1 53 -34 60 -47 10 -5 -19 -10 41 -12 133 -3 218 -19 201 -25 -24 -3 -158 14
-243 37 -179 20 54 46 -2 46 -96 0 -74 8 -99 29 -99 18 0 25 12 18 30 -6 17
-1 30 12 30 13 0 18 -9 11 -20 -7 -11 1 -25 17 -32 30 -11 113 56 113 92 0 11
23 20 50 20 31 0 50 -11 50 -30 0 -16 9 -30 19 -30 27 0 119 95 106 109 -7 6
12 11 42 11 32 0 53 -11 53 -28 0 -52 49 -47 100 9 58 65 153 103 134 53 -9
-26 21 -54 58 -54 18 0 7 578 -12 590 -12 8 -13 26 -3 46 32 63 4 84 -109 84
-75 0 -108 -8 -108 -26 0 -20 -27 -23 -110 -14 -60 7 -110 4 -110 -5 0 -10
-13 -31 -30 -48 -16 -16 -30 -20 -30 -8 0 27 -173 28 -190 1 -22 -36 -90 -23
-90 18 0 71 161 97 205 33 9 -13 15 -8 15 13 0 25 24 37 95 45 52 7 123 21
156 32 83 26 156 24 185 -5 19 -19 24 -16 24 10 0 31 26 42 95 39 15 0 25 26
25 67 0 38 -7 67 -15 66 -8 -1 -55 -11 -105 -21z m60 -287 c-10 -19 -113 -29
-145 -14 -9 4 -10 16 -3 26 16 26 161 14 148 -12z m-192 -23 c17 -42 19 -41
-93 -31 -113 10 -125 38 -20 49 41 5 81 10 88 12 7 1 18 -12 25 -30z m-262
-65 c-24 -20 -39 -42 -33 -48 6 -7 15 -51 18 -98 4 -47 17 -122 29 -168 40
-141 24 -179 -70 -171 -113 9 -121 23 -94 170 13 70 24 160 24 200 0 56 8 73
35 74 27 1 24 6 -10 20 -75 30 -51 59 50 58 95 0 95 0 51 -37z m444 -37 c6
-41 22 -127 34 -191 27 -141 13 -160 -103 -142 -85 14 -85 14 -72 86 6 40 17
128 24 197 15 156 95 191 117 50z m-160 25 c22 5 16 -2 -13 -14 -63 -27 -71
-108 -26 -262 31 -107 22 -153 -27 -143 -19 4 -60 12 -92 19 l-57 12 16 124
c9 68 16 161 16 206 l0 82 71 -16 c40 -9 90 -13 112 -8z m-1170 -124 c26 7 40
0 40 -18 0 -15 -17 -28 -39 -28 -21 0 -45 -10 -52 -21 -7 -12 -1 -20 14 -18
68 9 79 -2 77 -86 -2 -47 4 -116 11 -155 42 -204 -4 -304 -119 -261 -40 15
-42 27 -35 278 6 187 1 263 -15 263 -16 0 -16 11 2 39 18 29 31 33 50 18 14
-12 44 -17 66 -11z m-200 -98 c0 -20 -27 -28 -92 -28 -94 0 -122 48 -31 52 24
2 49 8 56 14 19 19 67 -8 67 -38z m-271 -90 c-26 -42 -9 -235 34 -373 52 -168
45 -183 -87 -179 l-106 4 2 80 c7 262 34 409 76 423 37 12 35 16 -23 31 -76
20 -87 56 -16 56 27 0 55 10 62 22 9 15 23 12 44 -8 17 -18 23 -41 14 -56z
m255 -82 c8 -62 29 -169 46 -237 36 -138 27 -161 -62 -163 -129 -4 -154 18
-139 121 7 51 18 161 24 244 11 147 13 151 64 150 49 -1 54 -9 67 -115z m-536
52 c18 -7 32 -25 32 -40 0 -32 -170 -41 -189 -9 -25 40 89 75 157 49z"/>
<path d="M180 3197 c0 -9 9 -17 21 -17 12 0 10 -12 -5 -27 -14 -16 -37 -24
-50 -19 -14 6 -39 -5 -57 -22 -18 -18 -40 -28 -49 -22 -29 18 -38 -46 -10 -70
30 -25 111 -9 132 25 7 11 41 21 76 24 35 3 68 11 75 17 6 7 47 7 89 1 61 -8
78 -4 78 20 0 23 -18 29 -78 23 -69 -6 -80 -1 -90 40 -12 46 -132 71 -132 27z"/>
<path d="M72 2897 c10 -16 1 -20 -29 -12 -32 8 -43 2 -43 -24 0 -39 83 -43 96
-4 4 12 25 23 46 23 21 0 38 9 38 20 0 11 -28 20 -61 20 -41 0 -57 -8 -47 -23z"/>
<path d="M92 2804 c-8 -13 -34 -25 -58 -25 -42 -2 -43 -2 -4 -19 34 -15 35
-17 5 -19 -46 -1 -44 -24 5 -67 52 -44 60 -43 60 6 0 22 18 58 40 80 45 45 55
77 12 42 -22 -18 -30 -18 -36 1 -7 19 -12 20 -24 1z"/>
<path d="M4980 2720 c-9 -61 10 -669 22 -735 3 -18 12 -18 30 -3 15 12 35 16
47 9 11 -7 25 12 32 43 21 95 27 106 58 106 18 0 31 -18 31 -42 0 -32 8 -39
35 -28 44 18 153 53 345 109 83 25 173 52 200 62 28 9 88 22 135 30 80 12 137
109 64 109 -12 0 -16 9 -9 20 7 11 -1 20 -18 20 -17 0 -26 -12 -21 -26 20 -51
-39 -102 -88 -76 -24 13 -53 18 -63 12 -11 -7 -20 -3 -20 9 0 12 -39 20 -95
18 -87 -3 -89 -4 -20 -12 41 -4 75 -15 75 -24 0 -23 -119 -38 -132 -18 -12 19
-108 1 -137 -26 -11 -10 -2 -17 24 -17 23 0 48 9 55 20 7 11 22 20 34 20 12 0
6 -18 -14 -40 -19 -21 -43 -34 -53 -28 -9 6 -26 -10 -36 -36 l-18 -46 -2 45
c0 25 -14 45 -29 45 -16 0 -45 6 -65 14 -31 11 -33 9 -12 -17 21 -26 14 -34
-45 -52 -41 -12 -75 -14 -81 -3 -6 10 12 18 40 18 28 0 51 10 51 21 0 12 -17
16 -37 10 -21 -7 -58 5 -87 28 -55 43 -76 36 -76 -26 0 -40 0 -40 -29 -2 -15
22 -21 42 -11 45 23 8 4 145 -25 179 -33 40 -39 166 -10 202 18 22 18 27 1 16
-16 -9 -26 8 -30 52 l-7 65 -9 -70z"/>
<path d="M1620 2725 c0 -26 82 -150 92 -140 5 6 -10 43 -33 82 -42 71 -59 88
-59 58z"/>
<path d="M5811 2405 c12 -8 28 -31 35 -51 8 -20 24 -30 36 -23 16 10 14 19 -5
32 -22 14 -22 20 3 37 23 15 16 19 -30 19 -33 0 -50 -6 -39 -14z"/>
<path d="M3261 2375 c-1 -19 -12 -35 -26 -35 -18 -1 -17 -6 3 -19 38 -24 54
-301 17 -301 -17 -1 -15 -7 5 -20 22 -14 23 -19 4 -20 -16 0 -25 -18 -21 -45
3 -25 -6 -65 -19 -89 -32 -58 -30 -69 10 -62 33 6 65 -72 73 -179 4 -58 6 -57
46 20 40 77 69 195 48 195 -8 0 -13 61 -11 135 3 77 -7 164 -23 202 -15 38
-27 88 -27 113 0 57 -78 160 -79 105z"/>
<path d="M1290 2329 c-11 -4 -60 -17 -108 -30 -54 -13 -79 -28 -65 -37 14 -9
-4 -15 -41 -16 -37 0 -84 -6 -106 -12 -22 -6 -46 -12 -54 -12 -7 -1 -19 -19
-25 -39 -7 -21 -32 -47 -56 -58 -42 -20 -43 -22 -8 -36 26 -10 44 -5 57 18 10
19 27 28 38 22 11 -7 60 6 109 29 49 23 111 42 139 42 28 0 56 14 63 30 6 17
29 30 50 30 22 0 34 8 28 19 -6 10 -3 24 9 31 11 7 20 1 20 -14 1 -20 4 -20
18 2 10 15 28 21 40 13 12 -7 22 -4 22 8 0 20 -86 27 -130 10z"/>
<path d="M5900 2150 c-27 -32 -15 -36 55 -17 25 6 45 20 45 29 0 29 -73 20
-100 -12z"/>
<path d="M720 2119 c0 -39 50 -76 72 -53 16 15 -29 94 -53 94 -10 0 -19 -18
-19 -41z"/>
<path d="M600 2075 c0 -61 43 -82 93 -45 36 27 36 29 -1 64 -36 35 -37 35 -24
-3 13 -38 13 -38 -27 -2 -40 37 -41 36 -41 -14z"/>
<path d="M2793 2070 c-17 -16 -36 -30 -43 -30 -29 0 -71 -62 -58 -85 8 -14 7
-18 -2 -10 -9 8 -28 5 -42 -6 -14 -12 -53 -22 -88 -23 -56 -2 -59 -5 -32 -33
24 -23 41 -26 76 -9 25 11 72 29 103 38 36 11 76 50 107 103 49 84 38 114 -21
55z"/>
<path d="M5858 2085 c-2 -8 -2 -20 -1 -27 0 -7 -37 -23 -83 -37 -80 -24 -189
-67 -255 -100 -17 -9 -59 -22 -93 -30 -34 -7 -68 -26 -74 -42 -6 -17 -38 -29
-76 -29 -94 -1 -129 -27 -71 -54 99 -45 267 -111 308 -120 23 -5 54 -32 68
-59 44 -81 149 -134 240 -119 48 8 79 5 79 -8 0 -11 -29 -20 -65 -21 l-65 0
50 -40 c28 -22 73 -62 102 -89 28 -28 57 -50 65 -50 22 0 14 137 -9 151 -12 7
-17 30 -12 50 12 47 -29 62 -128 46 -70 -11 -78 -8 -78 29 0 23 -16 51 -35 62
-55 33 -9 25 56 -9 34 -17 59 -21 59 -10 0 12 -13 21 -29 21 -15 0 -34 18 -41
40 -7 22 -22 40 -34 40 -14 0 -13 10 3 28 16 20 16 32 2 42 -12 7 -18 19 -13
27 5 8 -26 14 -69 14 -99 0 -169 57 -99 79 28 9 51 5 60 -10 11 -18 25 -19 58
-1 23 13 52 17 62 11 11 -7 20 -3 20 9 0 12 20 30 45 39 68 25 87 -44 34 -120
l-42 -58 44 0 c26 0 47 -16 53 -40 15 -56 38 -50 72 19 29 57 29 59 -27 71
-62 14 -28 90 40 90 25 1 26 4 4 18 -19 12 -21 21 -5 31 12 7 22 44 22 81 0
67 -1 67 -73 56 -53 -9 -69 -6 -59 11 8 13 9 23 3 23 -6 0 -12 -7 -13 -15z"/>
<path d="M490 2040 c-7 -22 -21 -40 -31 -40 -10 0 -13 14 -6 30 6 17 1 30 -11
30 -12 0 -22 -8 -22 -19 0 -10 -18 -19 -40 -20 -22 0 -59 -2 -82 -2 -34 -1
-37 -6 -16 -31 13 -16 36 -25 51 -20 15 6 27 1 27 -11 0 -14 10 -13 30 3 19
16 30 17 30 3 0 -15 19 -14 65 1 73 25 96 50 81 89 -15 40 -62 32 -76 -13z"/>
<path d="M4670 2040 c-22 -8 -76 -10 -120 -6 -60 7 -73 4 -50 -12 17 -12 66
-22 110 -22 55 0 71 -6 52 -18 -16 -10 -40 -14 -55 -8 -54 21 -25 -34 33 -64
66 -34 140 -13 140 38 0 15 18 32 40 38 62 16 48 63 -20 68 -36 3 -60 -5 -60
-20 -1 -17 -5 -18 -15 -2 -9 13 -32 16 -55 8z"/>
<path d="M5520 2041 c0 -11 -14 -15 -30 -8 -17 6 -43 1 -58 -11 -15 -13 -40
-18 -56 -11 -16 6 -41 -3 -56 -21 -21 -26 -21 -29 2 -22 15 5 80 20 143 32
104 21 160 60 85 60 -16 0 -30 -9 -30 -19z"/>
<path d="M135 1954 c-30 -12 -55 -30 -55 -40 0 -10 14 -13 30 -7 18 7 30 1 30
-15 0 -15 23 -32 50 -37 55 -10 69 14 19 33 -21 8 -27 25 -19 52 7 22 10 39 6
38 -3 -1 -31 -12 -61 -24z"/>
<path d="M220 1970 c0 -25 84 -90 101 -79 12 7 -1 29 -28 51 -49 38 -73 47
-73 28z"/>
<path d="M2113 1965 c-7 -12 -7 -37 0 -56 10 -27 7 -32 -15 -19 -15 8 4 -15
43 -52 39 -37 107 -86 150 -108 96 -48 174 -125 156 -154 -8 -13 -28 -3 -52
26 -21 27 -33 37 -26 24 6 -13 -7 -29 -29 -36 -57 -18 -33 -43 44 -47 69 -3
215 55 216 85 0 9 -31 12 -70 6 -84 -14 -92 9 -15 38 62 23 288 192 275 205
-5 5 -34 -8 -64 -29 -112 -75 -146 -88 -146 -57 0 16 -9 29 -20 29 -11 0 -20
-7 -20 -15 0 -22 -101 -65 -151 -65 -45 0 -109 57 -109 97 0 12 -11 23 -25 23
-14 0 -48 28 -77 63 -31 37 -57 54 -65 42z"/>
<path d="M4192 1930 c7 -39 5 -51 -7 -34 -13 19 -24 11 -43 -29 -21 -47 -21
-51 6 -29 38 32 28 -44 -12 -93 -23 -28 -21 -28 18 -4 24 15 40 33 35 41 -5 7
5 25 21 38 32 26 43 150 12 131 -10 -6 -23 0 -29 14 -7 14 -7 -2 -1 -35z"/>
<path d="M5410 1948 c-44 -16 -96 -26 -116 -20 -20 5 -41 -3 -47 -18 -6 -15
-25 -28 -44 -28 -147 -5 -284 -82 -146 -82 65 0 243 57 243 78 0 8 45 26 100
40 55 14 105 34 111 44 15 24 -5 21 -101 -14z"/>
<path d="M1383 1872 c-13 -48 -35 -92 -51 -98 -23 -9 -25 0 -10 52 23 80 24
74 -13 74 -19 0 -26 10 -19 25 7 14 -2 7 -19 -15 -18 -22 -29 -56 -24 -75 5
-19 -1 -35 -13 -35 -12 0 -4 -13 17 -29 22 -17 31 -30 20 -30 -10 -1 -1 -15
20 -33 31 -25 32 -29 6 -21 -34 11 -88 -90 -62 -115 6 -7 1 -12 -12 -12 -13 0
-23 10 -23 23 0 13 -5 18 -12 12 -7 -7 -2 -59 11 -117 17 -83 17 -108 -3 -121
-21 -13 -21 -16 1 -17 15 0 31 18 37 40 6 22 18 40 26 40 9 0 21 15 28 32 9
23 4 29 -18 21 -24 -9 -29 3 -25 58 3 40 16 69 31 69 28 0 48 41 52 105 1 23
13 45 25 49 17 6 21 -15 13 -68 -6 -42 -14 -148 -18 -236 -3 -88 -15 -200 -26
-250 -36 -162 -56 -439 -66 -895 -5 -195 -12 -247 -36 -257 -41 -17 27 -45
110 -46 58 -1 59 0 20 31 -28 22 -32 34 -15 41 14 5 25 25 25 44 0 19 11 45
24 58 14 14 16 24 3 24 -26 0 -29 183 -3 215 14 17 14 25 0 25 -11 0 -23 40
-27 88 -4 49 -1 85 6 80 6 -4 12 15 12 42 0 27 -6 46 -12 42 -11 -7 -13 50 -5
134 1 9 12 10 24 3 12 -8 18 -35 13 -61 -5 -27 -1 -48 9 -48 10 0 13 -8 7 -18
-6 -9 3 -29 20 -43 17 -14 26 -37 21 -52 -6 -14 -1 -32 11 -39 14 -9 13 -18
-4 -29 -23 -14 15 -79 46 -79 17 0 -8 190 -28 214 -12 14 -15 26 -6 26 9 0 -1
13 -22 29 -33 24 -35 35 -14 70 28 46 -3 121 -50 121 -27 0 -22 61 20 260 24
114 34 420 13 420 -11 0 -7 83 15 265 14 121 -21 126 -50 7z"/>
<path d="M7 1866 c2 -36 17 -58 40 -63 32 -6 33 -1 11 40 -13 26 -23 51 -20
57 3 5 -4 12 -15 16 -12 4 -19 -19 -16 -50z"/>
<path d="M4241 1744 c-67 -73 -132 -158 -145 -186 -13 -29 -49 -70 -80 -90
-31 -21 -56 -48 -56 -60 0 -12 -18 -42 -40 -68 -21 -25 -36 -51 -32 -58 5 -6
-21 -34 -58 -62 -36 -27 -65 -68 -66 -90 -1 -98 -54 -171 -102 -141 -10 6 -22
0 -26 -14 -13 -35 34 -118 55 -100 10 8 5 -1 -10 -20 -44 -59 -4 -67 49 -11
26 29 60 57 74 62 20 9 20 15 -4 32 -24 17 -25 28 -6 56 13 20 43 73 66 119
38 75 48 83 113 79 42 -2 76 8 82 23 5 14 18 25 28 25 11 0 13 -11 4 -25 -12
-20 -8 -20 16 0 18 15 29 48 26 80 -4 30 3 65 15 79 11 15 14 26 5 26 -8 0 -2
16 15 35 17 19 47 72 66 118 27 63 50 86 93 95 33 6 57 24 57 42 0 16 9 30 20
30 11 0 20 9 20 20 0 11 -13 20 -30 20 -36 0 -40 32 -7 52 14 8 18 5 10 -7
-21 -33 42 -46 68 -13 21 24 18 27 -11 15 -22 -8 -32 -6 -25 6 7 10 -5 30 -25
42 -33 21 -53 8 -159 -111z"/>
<path d="M4880 1854 c0 -29 70 -77 88 -59 22 22 12 38 -38 61 -39 18 -50 18
-50 -2z"/>
<path d="M1041 1831 c-14 -16 -19 -38 -13 -48 16 -25 -24 -38 -82 -27 -29 5
-46 23 -46 46 0 21 -9 38 -20 38 -36 0 -21 -65 30 -132 32 -41 62 -62 80 -55
17 6 31 4 32 -6 1 -9 3 -36 6 -59 8 -70 -53 -46 -111 44 -29 45 -69 88 -90 95
-35 12 -35 11 -2 -14 43 -34 46 -56 5 -40 -19 7 -30 -1 -30 -21 0 -18 -10 -32
-21 -32 -12 0 -15 11 -7 25 10 18 8 19 -10 3 -53 -48 -51 -165 4 -216 28 -26
58 -42 65 -35 8 7 8 -7 0 -32 -10 -34 -6 -45 20 -45 21 0 29 11 22 30 -8 20 1
30 28 30 21 0 39 -9 39 -19 0 -11 12 -15 26 -10 19 7 25 -21 25 -110 -1 -67
-5 -121 -11 -121 -13 0 -6 -322 9 -440 11 -79 23 -339 29 -596 2 -94 91 -127
93 -34 0 22 7 51 15 64 8 13 6 28 -4 35 -17 10 -7 66 60 311 26 96 33 300 11
300 -10 0 -13 44 -7 100 11 90 8 100 -27 100 -34 0 -38 -10 -29 -75 23 -165
24 -225 2 -225 -14 -1 -15 -6 -2 -15 40 -29 26 -105 -18 -103 -23 0 -32 5 -20
10 17 7 16 30 -3 84 -14 41 -18 78 -10 84 40 26 42 97 3 109 -31 10 -37 23
-25 57 9 24 14 88 12 143 -5 97 21 151 73 151 13 0 2 19 -24 43 -33 30 -37 39
-13 31 24 -9 35 -3 35 19 0 19 -11 27 -29 20 -36 -14 -59 18 -38 52 21 33 21
182 1 197 -10 7 -3 26 14 43 27 27 27 33 1 43 -29 11 -32 52 -6 72 13 10 24
86 19 135 -3 34 -32 32 -61 -4z m-158 -264 c21 -26 21 -35 2 -42 -14 -5 -25
-21 -25 -35 0 -37 -29 -53 -68 -38 -21 8 -32 37 -32 80 0 78 71 97 123 35z
m268 -1089 c7 -12 4 -31 -7 -42 -12 -12 -16 -33 -10 -48 6 -16 3 -28 -7 -28
-9 0 -18 32 -19 70 -2 69 17 90 43 48z"/>
<path d="M1149 1834 c-32 -82 17 -230 63 -193 43 36 33 63 -17 49 -28 -8 -36
-6 -20 5 14 10 21 44 16 83 -10 79 -26 99 -42 56z"/>
<path d="M4598 1833 c-44 -32 -207 -236 -223 -278 -8 -19 -24 -35 -36 -35 -12
0 -16 -8 -10 -18 6 -10 -16 -47 -50 -83 -62 -67 -66 -106 -6 -57 19 16 28 17
21 4 -8 -13 -5 -29 6 -36 11 -7 32 13 45 44 23 50 78 142 120 196 9 11 34 45
57 75 22 30 54 55 69 55 16 0 29 9 29 19 0 11 28 34 62 52 39 20 56 39 44 51
-30 30 -95 36 -128 11z"/>
<path d="M4800 1772 c0 -18 7 -31 15 -30 38 6 66 -4 57 -19 -6 -10 -34 -13
-62 -8 -35 7 -50 1 -50 -20 0 -16 -31 -63 -70 -104 -72 -75 -86 -78 -49 -10
14 27 14 39 0 39 -23 0 -26 -6 -31 -85 -2 -30 3 -55 12 -55 29 0 316 270 302
284 -35 34 -124 40 -124 8z"/>
<path d="M3124 1710 c-24 -28 -44 -64 -44 -81 0 -17 -8 -26 -19 -20 -10 6 -24
2 -31 -9 -7 -12 -31 -16 -52 -9 -35 11 -36 7 -15 -39 12 -28 31 -45 42 -39 11
7 8 19 -8 29 -15 10 -21 18 -14 18 8 0 28 6 46 12 21 9 31 3 27 -15 -3 -15 8
-27 24 -27 17 0 27 12 24 27 -3 17 6 24 23 17 36 -14 60 89 26 111 -15 10 -7
19 22 27 24 7 40 21 34 30 -18 29 -39 21 -85 -32z"/>
<path d="M5056 1718 c-4 -13 -32 -23 -62 -23 -30 0 -60 -8 -66 -17 -5 -10 -1
-18 11 -18 39 0 21 -60 -55 -185 -97 -162 -136 -245 -167 -360 -27 -103 -12
-144 32 -84 18 25 20 43 7 51 -26 17 0 100 42 132 27 21 28 25 2 26 -21 1 -16
13 18 41 26 22 53 35 59 28 7 -6 -1 -20 -18 -30 -24 -15 -23 -18 6 -19 40 0
42 7 17 94 -17 57 -14 64 25 70 24 3 41 13 38 21 -3 8 49 70 115 137 66 66
115 129 109 140 -16 26 -104 23 -113 -4z"/>
<path d="M4755 1529 c-68 -72 -125 -145 -128 -163 -2 -18 -12 -37 -21 -44 -9
-7 -19 -25 -23 -42 -3 -16 -19 -45 -35 -62 -16 -18 -33 -53 -38 -77 -5 -25
-17 -55 -27 -68 -30 -39 -41 -137 -14 -126 13 5 24 -2 24 -16 0 -14 -14 -24
-31 -23 -22 1 -30 -13 -27 -44 3 -33 -3 -42 -20 -31 -15 8 -12 -1 5 -23 24
-30 24 -34 2 -21 -22 13 -26 7 -17 -26 6 -24 3 -38 -7 -32 -10 6 -18 -16 -18
-49 0 -33 -9 -65 -19 -71 -11 -7 -15 -53 -10 -103 6 -58 2 -86 -11 -78 -11 7
-21 3 -22 -9 -5 -42 -10 -52 -45 -105 -25 -37 -32 -69 -21 -100 22 -66 24
-116 5 -116 -10 0 -17 -13 -17 -28 0 -16 -11 -32 -24 -37 -19 -6 -19 -11 0
-23 13 -8 24 -5 24 8 0 15 12 15 42 -1 23 -12 47 -17 53 -11 6 7 3 12 -7 12
-11 0 -19 18 -19 40 0 22 5 40 11 40 7 0 30 13 51 28 36 26 34 28 -21 20 -33
-4 -48 -3 -34 4 21 10 21 18 0 44 -20 24 -20 28 -1 17 14 -9 25 -6 25 6 0 11
-11 21 -25 21 -17 1 -16 7 4 19 16 10 40 53 53 95 22 69 26 72 39 31 13 -43
16 -44 40 -11 18 25 20 46 5 73 -12 23 -13 43 -2 51 43 28 46 86 6 96 -54 14
-54 99 0 116 31 10 37 24 28 61 -9 38 -4 49 22 49 35 0 108 74 109 110 0 11
-7 8 -17 -7 -10 -17 -22 -19 -29 -7 -7 10 7 43 30 73 35 45 38 62 20 102 -14
30 -15 49 -3 49 11 0 20 -10 20 -23 0 -13 5 -18 12 -12 6 6 1 30 -10 52 -19
35 -17 40 17 33 22 -4 45 1 52 11 6 11 -3 19 -21 19 -18 0 -27 9 -20 20 7 12
21 15 32 9 10 -6 24 15 30 48 7 33 27 77 45 97 18 20 36 52 39 71 3 19 27 58
54 86 40 44 50 109 17 109 -6 0 -65 -59 -132 -131z"/>
<path d="M5138 1565 c-167 -175 -276 -405 -192 -405 16 0 35 -15 42 -33 12
-30 15 -30 40 3 17 23 39 32 61 23 23 -9 32 -5 26 12 -5 14 -25 25 -45 25 -67
0 -57 138 11 156 22 6 39 25 39 42 0 18 8 32 19 32 10 0 24 18 31 40 7 22 25
40 41 40 16 0 23 12 16 29 -7 20 13 41 61 64 50 24 64 39 47 50 -55 35 -110
13 -197 -78z"/>
<path d="M5905 1646 c-48 -9 -62 -73 -22 -98 15 -9 18 -5 7 12 -12 19 -1 23
46 16 54 -8 62 -3 56 32 -6 44 -20 50 -87 38z"/>
<path d="M390 1549 c27 -52 50 -107 50 -121 0 -38 64 -168 83 -168 9 0 11 29
4 65 l-12 65 41 -40 c30 -28 44 -71 48 -143 3 -57 9 -100 13 -96 4 4 21 -6 37
-22 16 -16 38 -24 48 -18 22 14 17 129 -6 129 -8 0 -28 25 -43 55 -30 59 -13
145 29 145 16 0 16 -8 -2 -30 -20 -24 -20 -30 3 -30 21 -1 21 -5 -3 -20 -22
-14 -11 -19 45 -20 89 0 90 3 25 69 -56 55 -143 109 -122 74 7 -11 4 -25 -6
-32 -10 -6 -16 10 -13 36 2 25 -12 67 -32 92 -34 42 -37 43 -37 7 0 -22 -7
-46 -15 -54 -8 -9 -16 -24 -17 -34 -7 -44 -10 -46 -28 -18 -11 17 -20 50 -20
74 0 25 -25 61 -60 86 l-61 43 51 -94z"/>
<path d="M3978 1631 c-2 -6 -4 -21 -5 -33 -2 -13 -34 -33 -73 -46 -52 -17 -68
-33 -63 -61 6 -35 3 -36 -29 -10 -22 18 -30 19 -21 4 10 -16 -3 -32 -37 -45
-29 -11 -48 -28 -42 -37 24 -39 312 136 312 189 0 26 -38 60 -42 39z"/>
<path d="M233 1525 c8 -30 15 -70 15 -89 0 -18 6 -30 13 -25 18 11 7 -130 -12
-147 -8 -8 -9 -3 -2 10 8 13 5 29 -5 35 -23 14 -9 -79 20 -133 11 -21 16 -66
10 -101 -6 -37 0 -70 13 -78 16 -10 15 -23 -4 -46 -23 -27 -22 -30 4 -20 41
16 71 -129 31 -154 -19 -12 -14 -16 17 -17 41 0 85 -109 56 -138 -19 -19 -67
59 -55 90 6 17 -2 28 -22 28 -18 0 -31 -7 -30 -15 2 -8 1 -19 -1 -25 -25 -70
-7 -281 24 -273 19 5 40 1 46 -9 6 -10 2 -18 -9 -18 -23 0 -20 -135 3 -172 24
-39 23 -136 -2 -183 -22 -40 -20 -45 16 -45 36 0 42 14 45 105 8 212 -8 314
-51 338 -29 17 14 157 49 157 45 0 71 -294 42 -470 -22 -133 -17 -155 24 -100
38 53 39 331 2 600 -17 121 -31 234 -31 250 -3 95 -24 160 -51 160 -27 0 -27
4 1 31 38 39 41 89 4 89 -17 0 -28 27 -30 75 -5 130 -20 211 -41 224 -11 6
-29 36 -40 66 -28 73 -67 73 -49 0z"/>
<path d="M4481 1522 c-22 -32 -41 -73 -41 -90 0 -18 -11 -51 -25 -73 -21 -33
-20 -44 5 -59 20 -13 22 -19 5 -20 -34 0 -109 -77 -96 -98 18 -30 111 -39 111
-11 0 14 9 29 21 33 28 9 83 196 57 196 -31 0 -13 126 22 154 19 16 21 25 6
25 -13 1 -42 -25 -65 -57z"/>
<path d="M5365 1526 c-71 -46 -101 -88 -102 -139 0 -7 -12 -20 -26 -30 -22
-14 -22 -21 3 -37 39 -26 80 -25 80 1 0 11 16 18 35 15 25 -4 36 8 38 44 2 28
4 61 5 75 1 14 14 25 29 25 27 0 93 61 93 87 0 30 -77 10 -155 -41z"/>
<path d="M1591 1482 c-7 -11 2 -43 19 -69 31 -48 63 -138 82 -231 5 -27 18
-63 27 -80 9 -18 18 -39 19 -47 2 -19 23 -114 35 -160 5 -19 22 -35 38 -35 23
0 24 -10 5 -50 -20 -44 -15 -60 43 -132 54 -67 61 -86 39 -102 -22 -15 -20
-17 7 -8 33 10 33 8 0 -43 -34 -51 -34 -53 3 -39 20 8 49 5 63 -7 18 -15 30
-14 40 3 9 15 7 19 -7 11 -33 -21 -48 20 -47 130 1 78 -6 98 -27 90 -32 -13
-17 47 19 72 13 9 4 20 -24 27 -25 7 -46 21 -47 30 -2 10 -4 26 -5 36 -2 10
-9 25 -17 32 -7 8 -8 27 -2 43 6 15 -8 45 -31 65 -23 20 -38 41 -32 46 6 6 0
35 -14 64 -36 80 -13 80 105 1 124 -83 141 -108 75 -110 l-47 -2 46 -18 c30
-12 41 -28 31 -44 -10 -17 -3 -16 20 3 30 24 38 23 61 -8 30 -41 67 -6 39 37
-9 14 -2 9 16 -11 26 -28 45 -32 83 -18 50 20 209 -5 241 -37 27 -27 -6 -106
-39 -93 -33 13 -35 2 -7 -50 12 -21 29 -34 39 -28 9 6 23 2 30 -10 7 -11 4
-20 -7 -20 -11 0 -15 -18 -9 -40 7 -28 1 -40 -22 -40 -36 0 -43 -31 -12 -50
12 -7 14 -23 6 -36 -8 -15 -1 -13 19 3 18 14 44 20 58 11 17 -11 13 -19 -14
-30 -34 -13 -35 -15 -4 -17 19 0 36 -10 38 -21 1 -11 4 -31 5 -45 2 -14 15
-23 28 -20 13 3 24 -5 24 -16 0 -12 9 -16 20 -9 11 7 20 1 20 -13 0 -14 13 -7
30 17 20 28 43 39 70 32 23 -6 40 -1 40 13 0 13 9 18 20 11 11 -7 20 -3 20 8
0 11 13 16 28 10 15 -6 34 0 42 12 16 27 -92 21 -111 -5 -28 -38 -106 -33
-143 10 -32 37 -41 39 -57 14 -10 -16 -18 -20 -18 -9 0 24 48 90 66 90 6 0 7
-14 0 -30 -8 -22 -2 -27 21 -18 36 14 39 26 14 65 -14 23 -26 21 -68 -6 -31
-21 -55 -26 -63 -13 -7 11 -27 15 -45 8 -22 -9 -28 -5 -18 11 8 12 32 23 53
23 22 0 39 8 39 18 0 10 18 14 40 8 33 -9 38 -4 27 25 -8 22 -6 31 6 23 28
-17 26 52 -1 71 -13 8 -3 15 23 15 25 0 45 8 45 17 0 10 -20 14 -45 9 -41 -8
-135 49 -135 81 0 24 66 13 88 -15 28 -36 152 -63 152 -34 0 12 16 22 36 22
20 0 45 8 55 17 10 10 62 32 114 49 52 17 124 54 161 83 37 28 73 45 80 38 7
-7 -10 -30 -37 -51 -27 -21 -49 -52 -49 -68 0 -16 -21 -37 -46 -46 -57 -22
-85 -57 -101 -126 -7 -29 -27 -67 -43 -83 -17 -17 -30 -42 -30 -57 -1 -19 -6
-18 -20 4 -15 24 -20 20 -21 -20 -2 -46 -3 -47 -20 -10 -17 37 -18 36 -14 -8
4 -34 19 -50 53 -56 27 -4 60 -16 73 -27 17 -14 41 -12 77 4 38 17 46 28 28
40 -19 12 -19 16 -2 17 47 0 48 -42 3 -79 l-47 -37 50 2 c28 1 77 -4 110 -11
33 -7 49 -9 35 -3 -38 17 -30 49 8 34 26 -10 31 -5 21 21 -8 21 -3 33 15 33
15 0 42 5 59 12 23 9 28 1 22 -32 -6 -34 -3 -39 17 -22 18 15 32 15 47 0 14
-14 24 -11 33 12 7 19 4 27 -7 20 -11 -7 -20 -3 -20 9 0 11 -13 21 -30 21 -16
0 -30 7 -30 16 0 8 -17 15 -39 15 -21 0 -34 -6 -29 -15 6 -8 -27 -13 -71 -11
-60 4 -78 12 -71 33 9 22 5 23 -18 3 -24 -19 -37 -16 -69 16 -22 22 -44 35
-50 29 -6 -5 -5 9 1 32 10 38 30 51 71 44 8 -1 15 7 15 18 0 11 18 20 40 20
27 0 40 13 40 40 0 22 9 40 20 40 10 0 24 20 31 45 13 55 97 98 151 78 39 -14
39 -15 -1 -58 -43 -46 -54 -76 -21 -55 11 7 20 3 20 -9 0 -11 -11 -21 -23 -21
-13 0 -18 -6 -11 -13 8 -7 3 -26 -9 -41 -27 -32 -23 -37 43 -54 l50 -14 -50
30 c-47 29 -47 33 -1 40 29 3 73 52 47 52 -12 0 -27 15 -34 32 -9 25 -4 29 23
19 27 -10 30 -8 11 11 -18 18 -17 30 6 53 18 17 24 45 17 70 -9 26 -6 35 9 26
12 -7 22 -3 22 9 0 12 9 17 20 10 11 -7 20 -2 20 10 0 12 11 16 23 8 16 -10
20 -4 11 18 -7 18 -3 38 7 45 11 6 14 20 8 30 -6 11 -3 19 8 19 10 0 24 -13
30 -30 7 -17 3 -30 -8 -30 -20 0 -16 -70 6 -92 18 -18 42 85 28 120 -6 16 3
40 19 54 16 13 25 36 20 51 -6 15 -1 27 10 27 11 0 15 8 9 18 -6 9 3 29 19 42
45 37 36 64 -15 50 -44 -12 -44 -11 -6 19 60 48 19 37 -70 -20 -44 -28 -75
-59 -69 -69 21 -34 -54 -99 -92 -79 -34 18 -194 -31 -172 -54 6 -5 39 5 74 23
35 18 68 29 73 24 5 -5 -32 -28 -82 -52 -50 -23 -91 -52 -91 -63 0 -12 -8 -16
-19 -10 -10 6 -24 2 -31 -9 -7 -11 -21 -15 -31 -9 -11 6 -19 2 -19 -10 0 -11
-13 -21 -30 -21 -16 0 -30 -10 -30 -21 0 -12 -9 -16 -20 -9 -12 7 -15 22 -8
33 7 12 -8 10 -35 -4 -60 -31 -78 -49 -32 -33 19 7 35 4 35 -7 0 -21 -12 -22
-273 -26 -101 -2 -174 3 -163 9 11 7 -21 19 -72 27 -51 7 -103 6 -117 -2 -35
-22 -102 -8 -121 25 -9 15 -31 28 -50 28 -19 1 -74 19 -124 40 -57 26 -76 29
-51 10 51 -40 21 -38 -84 5 -47 19 -85 47 -85 61 0 19 10 20 45 4 41 -20 40
-19 -5 19 -27 23 -71 59 -96 81 -65 55 -93 71 -76 43 8 -13 7 -23 -2 -23 -16
0 -52 50 -97 136 -15 27 -30 38 -38 26z m269 -257 c0 -15 -71 6 -95 29 -51 47
-23 66 35 23 33 -25 60 -48 60 -52z m1584 -78 c-57 -52 -102 -75 -157 -80
l-77 -7 78 40 c43 22 93 52 110 67 32 28 76 48 109 51 10 1 -19 -31 -63 -71z"/>
<path d="M0 1389 c0 -82 42 -120 99 -90 46 25 57 71 12 54 -35 -13 -79 37 -65
73 6 15 -2 27 -18 27 -18 0 -28 -22 -28 -64z"/>
<path d="M5496 1345 c-78 -82 -161 -223 -183 -310 -8 -30 -22 -55 -32 -55 -11
0 -1 51 20 113 29 85 33 120 16 140 -25 31 -86 -2 -66 -35 6 -10 3 -18 -8 -18
-10 0 -25 -47 -33 -105 -7 -58 -18 -123 -24 -145 -5 -22 -12 -65 -16 -95 -3
-30 -7 -62 -10 -70 -3 -8 -5 -19 -4 -25 3 -68 31 -543 34 -580 2 -27 5 -75 7
-105 2 -45 12 -55 54 -55 29 0 46 9 39 20 -7 11 -3 20 8 20 13 0 10 29 -7 76
-31 90 18 239 51 154 13 -34 16 -30 18 20 2 33 6 74 9 90 45 215 38 227 -42
69 -71 -139 -138 -210 -116 -121 8 31 16 159 17 283 1 124 7 225 12 225 36 -3
42 8 19 35 -19 23 -20 36 -2 54 17 17 23 17 23 -1 0 -13 10 -24 22 -24 12 0
17 14 10 31 -6 18 -3 26 8 19 11 -7 20 -2 20 10 0 43 144 220 179 220 11 0 21
10 21 23 0 12 19 39 43 60 24 20 36 37 26 37 -9 0 3 19 28 41 24 23 39 50 32
60 -25 41 -104 16 -173 -56z"/>
<path d="M3790 1374 c-8 -20 -10 -41 -3 -47 17 -18 73 8 73 34 0 12 -8 16 -18
10 -10 -6 -23 0 -28 14 -6 17 -14 13 -24 -11z"/>
<path d="M4191 1267 c-16 -42 29 -72 64 -43 19 16 20 28 3 49 -30 36 -51 34
-67 -6z"/>
<path d="M780 1262 c0 -10 10 -45 23 -76 13 -31 22 -63 20 -71 -2 -8 7 -15 19
-15 12 0 17 -13 12 -28 -17 -44 31 -96 73 -80 26 10 29 18 12 29 -13 8 -24 39
-24 68 0 34 -17 65 -47 84 -27 18 -48 44 -48 58 0 15 -9 32 -20 39 -11 7 -20
3 -20 -8z"/>
<path d="M5688 1214 c-94 -55 -140 -109 -166 -194 -15 -49 -34 -108 -43 -130
-33 -82 -32 -102 14 -175 26 -41 47 -83 47 -95 0 -11 9 -20 20 -20 11 0 20 14
20 30 0 17 0 35 0 40 0 6 -6 9 -13 8 -38 -5 -61 109 -32 154 26 39 113 58 99
22 -9 -24 1 -30 39 -26 59 7 97 53 61 76 -15 10 -7 16 21 16 42 0 86 27 168
105 20 19 46 35 57 35 39 0 19 58 -25 72 -56 17 -67 13 -59 -23 3 -16 -4 -29
-15 -29 -12 0 -21 -20 -21 -45 0 -51 -91 -108 -108 -68 -6 16 -9 15 -10 -2 -1
-14 -15 -25 -32 -25 -16 0 -30 -9 -30 -20 0 -35 -50 -21 -76 22 -23 36 -21 42
11 51 21 5 46 38 56 73 17 57 27 64 87 61 46 -3 60 2 41 14 -23 14 -22 19 6
30 18 7 41 8 50 2 9 -6 30 -1 46 10 24 17 23 19 -5 10 -19 -6 -40 -2 -47 8 -6
11 -20 15 -29 9 -9 -6 -23 -2 -30 10 -16 26 -50 24 -102 -6z"/>
<path d="M4160 1165 c-16 -6 -59 -41 -93 -78 -44 -47 -68 -61 -78 -45 -9 14
-1 35 18 48 50 37 40 52 -17 26 -27 -12 -50 -30 -50 -39 0 -9 -16 -17 -36 -17
-22 0 -35 -15 -35 -40 0 -48 17 -51 51 -10 35 42 58 37 55 -10 -2 -22 -15 -40
-29 -40 -30 0 -64 -61 -52 -95 11 -29 66 -34 66 -6 0 10 18 24 39 31 24 7 35
23 27 42 -7 20 4 34 31 42 39 10 52 30 45 71 -1 8 12 15 28 15 17 0 30 10 30
23 0 12 15 33 33 47 37 26 14 50 -33 35z"/>
<path d="M140 1089 c0 -36 7 -47 25 -36 15 9 11 -5 -7 -34 -47 -72 -39 -147
17 -155 50 -7 58 45 32 201 -14 86 -67 105 -67 24z"/>
<path d="M4912 1109 c-7 -19 -3 -26 10 -18 24 15 -19 -65 -57 -107 -40 -43
-29 -47 36 -14 33 18 55 40 48 51 -6 11 9 28 35 38 34 14 37 19 11 20 -19 0
-35 15 -35 31 0 39 -32 39 -48 -1z"/>
<path d="M577 1075 c13 -13 22 -41 22 -64 -2 -40 -2 -40 -19 1 -18 45 -72 76
-88 51 -9 -15 2 -110 58 -513 16 -110 34 -254 41 -320 20 -207 28 -230 76
-230 41 0 44 9 43 128 0 70 -6 124 -13 120 -7 -4 -24 6 -37 22 -20 24 -19 30
3 30 17 0 19 6 6 15 -29 21 -36 155 -10 204 15 27 16 41 2 41 -12 0 -22 -11
-23 -25 -1 -14 -15 6 -31 43 -27 62 -27 71 2 86 47 27 41 116 -9 116 -22 0
-40 9 -40 20 0 11 14 20 30 20 17 0 30 9 30 20 0 11 13 20 29 20 16 0 38 16
49 35 18 33 22 32 50 -5 19 -25 31 -30 31 -14 1 17 17 23 46 16 30 -7 27 -3
-10 13 -30 12 -55 35 -55 50 0 49 -56 92 -65 50 -7 -28 -13 -25 -30 17 -12 29
-42 58 -66 64 -34 9 -39 6 -22 -11z"/>
<path d="M4349 1054 c-7 -18 -24 -27 -39 -21 -25 9 -64 -63 -53 -101 3 -9 -14
-12 -36 -6 -23 5 -36 2 -30 -8 6 -10 -3 -18 -21 -18 -18 0 -27 -9 -20 -20 7
-11 2 -20 -10 -20 -12 0 -16 -11 -8 -23 10 -16 4 -20 -18 -11 -18 7 -39 2 -46
-10 -8 -13 -5 -17 8 -9 11 8 27 5 34 -7 7 -11 -6 -20 -27 -20 -34 0 -66 -42
-61 -80 0 -5 -13 -36 -30 -69 -16 -32 -25 -67 -18 -77 6 -11 -1 -15 -16 -10
-37 13 -75 -41 -62 -89 6 -26 14 -31 24 -15 10 16 18 14 27 -8 7 -20 1 -32
-18 -32 -16 0 -29 -12 -29 -26 0 -46 -78 -114 -115 -100 -26 9 -30 6 -13 -12
15 -17 45 -18 105 -5 47 11 78 11 72 1 -6 -10 -24 -18 -39 -18 -48 0 -70 -63
-34 -98 23 -24 33 -25 39 -7 5 14 17 20 27 14 10 -6 19 0 20 15 2 14 5 35 7
46 3 11 6 31 8 45 4 37 58 30 81 -10 10 -19 24 -30 30 -24 18 18 -12 100 -35
97 -67 -8 -103 3 -73 22 28 18 13 29 -28 21 -10 -2 -7 10 6 27 14 17 20 39 13
50 -7 12 10 16 42 10 47 -9 50 -6 27 21 -22 28 -20 30 12 18 32 -12 34 -10 13
16 -13 17 -20 35 -14 41 6 6 14 42 17 80 14 143 119 204 128 74 3 -52 -2 -76
-15 -68 -21 12 -29 -14 -22 -67 2 -15 -3 -42 -11 -60 -21 -48 -22 -68 -5 -118
9 -25 8 -45 -1 -45 -38 0 -36 -52 2 -55 32 -2 38 7 31 46 -5 27 -1 49 10 49
11 0 14 13 8 29 -7 18 -1 25 15 19 16 -6 35 22 52 76 15 47 33 95 41 106 11
17 59 154 94 270 5 17 -9 8 -32 -19 -22 -28 -36 -57 -30 -65 5 -9 1 -16 -10
-16 -11 0 -35 -6 -55 -13 -22 -9 -30 -6 -22 7 8 12 1 32 -15 45 -30 25 -20 89
10 70 10 -6 35 9 56 32 22 24 47 51 56 62 9 10 31 30 47 43 17 13 27 22 22 19
-5 -2 -20 5 -35 17 -20 17 -29 15 -38 -8z"/>
<path d="M5059 1038 c-12 -22 -17 -54 -11 -70 6 -15 2 -28 -9 -28 -10 0 -19
-9 -19 -21 0 -14 12 -14 37 0 21 11 45 13 55 5 9 -8 5 1 -8 19 -14 18 -21 56
-16 85 11 63 1 66 -29 10z"/>
<path d="M5923 911 c-36 -39 -74 -67 -83 -61 -10 6 -24 0 -31 -12 -8 -12 -2
-30 13 -39 22 -14 21 -19 -6 -29 -17 -7 -57 -65 -87 -129 -34 -72 -66 -113
-81 -107 -17 6 -22 -4 -15 -30 6 -22 -1 -46 -14 -55 -17 -10 -20 -7 -9 11 11
18 8 21 -8 11 -14 -8 -20 -28 -14 -43 6 -15 1 -28 -11 -28 -12 0 -17 -18 -11
-40 7 -26 0 -40 -18 -40 -20 0 -25 -14 -17 -48 7 -26 2 -54 -10 -61 -12 -8
-16 -22 -10 -32 6 -11 5 -30 -4 -43 -23 -38 -29 -136 -7 -136 10 0 24 25 31
55 25 122 55 217 81 254 16 22 28 52 28 66 0 41 84 145 106 131 11 -7 14 -3 7
9 -7 11 5 43 27 71 22 28 40 55 40 61 0 18 122 133 142 133 10 0 17 7 15 15
-2 8 3 30 11 48 8 19 12 57 8 86 l-6 53 -67 -71z"/>
<path d="M2131 889 c-10 -21 -15 -50 -13 -64 2 -14 -6 -25 -17 -25 -12 0 -21
-10 -21 -21 0 -12 8 -16 19 -10 10 6 24 2 31 -9 7 -11 23 -15 34 -7 13 8 16 4
8 -10 -8 -13 -3 -23 12 -23 19 -1 18 -6 -4 -20 -24 -15 -24 -19 -3 -20 24 0
24 -5 0 -34 -23 -29 -23 -31 1 -17 22 13 26 5 18 -36 -8 -41 -3 -52 22 -48 22
3 31 -9 30 -40 -1 -48 23 -62 37 -21 5 15 13 10 21 -11 8 -21 6 -30 -6 -23
-11 7 -20 3 -20 -7 0 -11 -16 -24 -35 -29 -32 -8 -31 -10 2 -12 31 -2 36 -15
29 -71 -7 -59 -3 -65 22 -45 24 20 27 17 17 -21 -7 -27 -2 -45 12 -45 13 0 10
-9 -7 -20 -20 -13 -22 -19 -5 -20 14 0 25 -13 25 -30 0 -16 9 -30 20 -30 11 0
20 11 20 23 0 13 5 19 10 13 6 -5 -3 -36 -20 -68 -38 -75 -38 -114 1 -48 23
38 29 41 24 12 -3 -21 8 -42 23 -48 16 -5 22 0 14 12 -7 12 -4 27 8 34 11 7
20 -2 20 -19 0 -21 18 -31 55 -30 53 0 53 2 16 30 -28 21 -30 29 -10 29 17 0
21 7 9 15 -20 15 -31 48 -36 108 -1 19 -9 30 -18 24 -9 -5 -16 5 -16 23 0 18
-9 27 -22 19 -15 -9 -14 1 2 30 25 48 9 87 -19 43 -9 -15 -13 10 -10 61 6 88
-44 251 -51 167 -3 -34 -6 -32 -18 10 -9 29 -6 56 7 65 14 9 12 14 -5 15 -15
0 -21 9 -14 20 7 11 -2 26 -20 33 -27 10 -28 16 -7 31 18 13 9 15 -28 7 -56
-12 -78 16 -27 35 17 7 23 30 17 62 -10 55 -35 68 -52 27 -6 -15 -11 -10 -11
11 -1 20 -10 31 -20 25 -10 -6 -22 0 -27 13 -4 14 -14 8 -24 -15z"/>
<path d="M4820 900 c-25 -16 -24 -19 7 -20 31 0 35 -10 24 -55 l-14 -55 46 50
c38 40 41 52 17 58 -23 6 -21 11 10 23 36 15 35 16 -10 17 -27 1 -63 -7 -80
-18z"/>
<path d="M3770 845 c-9 -19 -17 -53 -19 -75 -2 -22 -10 -58 -17 -80 -12 -34
-4 -40 51 -42 36 -2 49 1 30 6 -19 5 -35 18 -35 29 0 10 8 14 18 8 11 -6 32 2
48 18 16 16 34 25 39 19 6 -5 16 5 22 22 9 22 5 27 -12 17 -17 -10 -16 -3 2
19 24 29 24 34 -2 34 -17 0 -36 -20 -43 -45 -9 -36 -16 -39 -30 -17 -12 19 -9
38 10 57 39 39 35 56 -6 22 -29 -24 -32 -23 -20 8 7 19 5 35 -4 35 -10 0 -24
-16 -32 -35z"/>
<path d="M5001 855 c-1 -34 -22 -44 -76 -36 -38 4 -30 -15 17 -40 33 -18 39
-18 28 2 -10 15 -6 21 11 15 51 -17 67 -114 26 -161 -20 -23 -26 -35 -12 -27
30 17 33 -25 5 -68 -13 -20 -19 -22 -20 -5 0 14 -13 25 -30 25 -16 0 -30 14
-30 30 0 17 -10 30 -22 30 -21 0 -20 -16 14 -150 9 -36 8 -37 -12 -5 -12 19
-31 35 -42 35 -11 0 -15 -8 -9 -19 6 -10 3 -24 -9 -31 -11 -7 -20 -4 -20 5 0
10 -27 14 -60 9 -59 -8 -70 -90 -16 -126 9 -6 12 -26 5 -43 -7 -17 3 -55 22
-83 18 -29 27 -52 19 -52 -8 0 0 -22 18 -49 17 -27 32 -61 32 -76 0 -15 17
-28 38 -29 32 -3 44 21 71 150 17 85 59 265 91 400 67 272 73 325 37 289 -18
-18 -30 -15 -50 11 -24 32 -26 32 -26 -1z m-98 -452 c15 -75 7 -101 -31 -111
-25 -7 -34 -18 -21 -27 30 -22 24 -75 -9 -75 -16 0 -30 18 -33 40 -2 22 -6 49
-9 60 -21 83 1 144 50 135 28 -5 51 -15 53 -22z"/>
<path d="M2792 799 c-20 -34 -32 -65 -28 -70 19 -18 96 56 96 92 0 57 -26 48
-68 -22z"/>
<path d="M3540 771 c0 -18 -12 -37 -27 -42 -14 -6 -26 -22 -26 -37 0 -28 51
-36 56 -9 5 39 8 48 23 71 8 13 6 29 -6 36 -11 7 -20 -2 -20 -19z"/>
<path d="M3649 755 c-7 -19 -9 -47 -3 -63 6 -15 1 -37 -12 -50 -12 -12 -15
-22 -7 -22 21 0 80 60 59 60 -9 0 -5 8 9 16 20 13 19 25 -4 55 -26 36 -29 37
-42 4z"/>
<path d="M830 735 c-19 -60 -24 -175 -7 -175 11 0 13 -11 4 -24 -26 -43 -30
-156 -5 -156 16 0 17 -8 3 -25 -36 -44 -48 -275 -14 -275 16 0 29 14 29 30 0
17 7 30 17 30 23 0 17 87 -7 105 -12 9 -1 20 25 27 27 8 46 29 48 55 1 24 4
66 7 93 3 28 -1 59 -10 70 -8 11 -12 36 -9 57 4 26 -3 33 -28 24 -29 -10 -29
-8 2 16 42 33 45 80 7 112 -23 19 -31 16 -38 -13 -5 -20 -7 -11 -5 19 4 58 -5
72 -19 30z"/>
<path d="M3200 730 c0 -16 -14 -30 -31 -30 -17 0 -26 -8 -20 -18 6 -10 0 -23
-14 -29 -15 -6 -10 -10 11 -11 20 -1 31 -11 24 -22 -7 -11 -2 -20 10 -20 14 0
18 16 10 40 -7 22 -4 40 6 40 11 0 24 18 30 40 6 22 2 40 -8 40 -10 0 -18 -13
-18 -30z"/>
<path d="M4745 680 c-25 -42 -39 -92 -33 -109 7 -17 2 -31 -10 -31 -12 0 -22
-9 -22 -20 0 -38 84 -21 94 20 6 22 20 40 30 40 11 0 15 13 9 29 -7 18 -1 25
15 19 16 -6 32 9 39 36 19 69 16 81 -15 70 -15 -6 -35 -3 -45 7 -10 10 -36
-16 -62 -61z"/>
<path d="M645 682 c-24 -31 -37 -63 -31 -70 12 -11 86 -18 86 -7 0 3 8 34 19
70 24 84 -15 88 -74 7z"/>
<path d="M200 639 c0 -12 -10 -15 -22 -8 -16 10 -16 3 0 -27 32 -60 27 -99 -6
-53 -16 21 -34 34 -40 27 -7 -6 11 -32 38 -58 l50 -47 0 94 c0 51 -4 93 -10
93 -5 0 -10 -10 -10 -21z"/>
<path d="M3674 598 c-7 -24 -2 -33 11 -25 12 8 15 4 7 -10 -8 -13 -27 -23 -43
-23 -39 0 -38 -107 1 -140 25 -20 30 -19 30 8 0 17 7 32 16 32 8 0 17 23 20
51 2 28 13 68 23 88 16 29 12 39 -18 46 -25 7 -41 -2 -47 -27z"/>
<path d="M5451 595 c-23 -73 -22 -87 7 -109 29 -22 29 -25 -3 -25 -19 -1 -35
-3 -36 -6 -17 -82 -18 -235 -1 -235 21 0 26 28 27 134 0 25 8 40 18 34 10 -6
12 -21 4 -32 -8 -13 -4 -16 10 -8 13 8 23 26 23 40 0 14 14 54 31 89 31 62 24
115 -12 92 -11 -6 -19 3 -19 20 0 37 -38 42 -49 6z"/>
<path d="M5865 561 c-58 -48 -59 -73 -1 -32 25 17 67 31 94 31 27 0 42 6 35
14 -29 28 -84 22 -128 -13z"/>
<path d="M3765 526 c-38 -83 -33 -112 15 -86 26 14 40 42 40 81 0 73 -22 75
-55 5z"/>
<path d="M3510 525 c-22 -4 -50 -29 -63 -56 -13 -27 -16 -45 -7 -39 9 5 21 -3
27 -18 6 -17 -6 -32 -28 -38 -26 -7 -34 -3 -25 13 8 14 2 13 -18 -3 -26 -20
-33 -20 -43 5 -6 16 1 37 16 45 22 13 22 20 -1 42 -28 25 -40 -12 -29 -91 1
-14 -8 -25 -21 -25 -15 0 -10 -16 12 -40 35 -39 124 -58 101 -22 -6 10 7 14
29 8 49 -13 52 -40 5 -52 -28 -7 -26 -10 8 -12 23 -1 48 12 54 28 7 17 2 30
-9 30 -11 0 -15 9 -8 20 7 11 4 20 -6 20 -19 0 10 104 43 156 21 33 14 37 -37
29z"/>
<path d="M65 458 c-1 -21 7 -38 18 -38 61 0 96 -93 52 -137 -20 -20 -18 -23
10 -12 20 8 35 4 35 -9 0 -12 -11 -22 -24 -22 -18 0 -18 -6 -2 -22 13 -13 18
-38 13 -55 -9 -29 -8 -29 11 -3 38 54 9 260 -45 314 -29 29 -65 20 -68 -16z"/>
<path d="M5915 431 c-30 -38 -55 -78 -55 -89 0 -11 -12 -27 -27 -36 -35 -21
-59 -112 -26 -100 12 5 21 19 18 32 -3 12 4 22 15 22 11 0 20 -11 20 -25 1
-17 7 -15 19 4 12 19 11 35 -2 43 -20 12 72 98 106 98 9 0 17 27 17 60 0 77
-18 76 -85 -9z"/>
<path d="M2909 453 c-6 -14 -1 -51 10 -81 16 -42 15 -51 -4 -39 -14 9 -47 18
-75 21 l-50 5 50 -21 c27 -11 57 -33 65 -48 14 -24 22 -23 55 5 34 29 35 36
10 50 -36 20 -40 68 -6 80 26 8 5 55 -26 55 -11 0 -24 -12 -29 -27z"/>
<path d="M1885 420 c-2 -30 10 -40 47 -40 35 0 46 -8 36 -25 -8 -14 9 -4 37
22 45 41 51 42 48 10 -2 -21 -12 -44 -23 -52 -11 -8 10 -15 47 -15 44 0 63 -8
58 -25 -5 -14 -24 -24 -42 -22 -18 1 -33 -4 -33 -13 0 -9 -13 -14 -29 -13 -16
2 -31 -5 -35 -15 -9 -27 68 -33 98 -8 14 11 26 13 26 3 1 -43 39 49 40 95 0
40 -10 51 -45 50 -27 -1 -44 10 -45 28 0 30 -13 40 -50 40 -11 0 -18 -7 -15
-15 3 -8 -2 -17 -10 -20 -8 -3 -14 1 -13 8 2 16 -45 46 -73 47 -11 0 -22 -18
-24 -40z"/>
<path d="M1430 395 c7 -25 15 -61 16 -80 2 -19 17 -35 35 -35 40 0 50 121 13
144 -49 31 -79 18 -64 -29z"/>
<path d="M3180 360 c0 -11 -13 -20 -29 -20 -16 0 -39 -18 -51 -40 -27 -50 10
-55 37 -5 17 30 22 27 34 -20 15 -61 13 -60 56 -43 35 13 21 68 -17 68 -16 0
-22 15 -16 40 6 22 5 40 -2 40 -6 0 -12 -9 -12 -20z"/>
<path d="M3620 361 c0 -11 9 -21 20 -21 11 0 19 -7 18 -15 -8 -51 3 -61 49
-39 36 17 42 28 24 46 -34 34 -111 55 -111 29z"/>
<path d="M5675 296 c-14 -31 -32 -56 -40 -56 -8 0 -15 -17 -15 -38 0 -21 -11
-43 -25 -49 -20 -8 -20 -10 0 -11 14 -1 25 -12 25 -23 0 -12 -9 -16 -20 -9
-11 7 -20 3 -20 -9 0 -11 14 -21 32 -21 25 0 21 -9 -15 -39 -37 -31 -40 -40
-14 -40 41 -1 72 37 82 99 4 28 23 80 42 116 19 36 29 74 23 85 -7 10 7 19 30
19 23 0 37 8 31 19 -23 37 -92 12 -116 -43z"/>
<path d="M2745 250 c-25 -13 -38 -31 -30 -40 8 -9 -5 -11 -30 -5 -57 14 -57
-8 -2 -57 24 -21 38 -29 32 -17 -22 38 17 74 65 59 31 -10 38 -19 21 -29 -17
-11 -14 -19 12 -29 30 -12 31 -17 6 -33 -18 -11 -20 -19 -5 -19 33 0 51 35 25
50 -14 10 -14 22 2 42 13 15 17 28 9 28 -8 0 -3 15 13 33 22 28 16 27 -33 -4
-48 -31 -55 -32 -34 -5 34 42 6 56 -51 26z"/>
<path d="M3616 237 c-5 -29 -2 -68 8 -85 11 -20 10 -32 -3 -32 -12 0 -21 -13
-21 -29 0 -16 -20 -43 -44 -60 l-45 -31 46 0 c25 0 40 9 33 20 -7 11 -4 20 7
20 11 0 25 -11 31 -25 6 -14 5 0 -1 30 -9 46 -6 53 22 43 26 -11 31 -3 23 39
-5 29 -1 58 9 64 29 17 23 49 -9 49 -16 0 -32 11 -37 25 -5 14 -13 1 -19 -28z"/>
<path d="M1453 236 c5 -9 1 -16 -9 -16 -11 0 -24 -18 -30 -40 -6 -22 -2 -40 8
-40 22 0 98 74 98 96 0 8 -17 15 -39 15 -21 0 -34 -7 -28 -15z"/>
<path d="M5945 246 c-14 -5 -25 -22 -25 -38 0 -15 -10 -28 -21 -28 -12 0 -16
-9 -10 -19 20 -32 71 1 71 46 1 35 4 38 20 13 12 -18 20 -20 20 -6 0 30 -23
43 -55 32z"/>
<path d="M2094 173 c8 -12 -1 -15 -21 -7 -18 7 -33 4 -33 -7 0 -10 -13 -19
-28 -19 -15 0 -33 -13 -39 -29 -7 -18 -1 -25 15 -19 29 11 59 -44 41 -74 -6
-10 -2 -18 8 -18 11 0 24 20 29 45 l9 45 2 -45 c2 -25 11 -45 21 -45 31 0 11
64 -28 93 -51 37 -19 62 36 28 39 -24 41 -24 19 2 -16 20 -17 37 -4 50 14 14
11 20 -9 20 -17 0 -25 -9 -18 -20z"/>
<path d="M3347 165 c20 -20 47 -26 84 -17 68 18 58 28 -38 38 -68 8 -73 6 -46
-21z"/>
<path d="M4574 175 c-5 -14 0 -41 10 -60 29 -58 -3 -83 -47 -37 -52 56 -59 53
-35 -16 19 -55 27 -59 121 -57 98 2 99 3 56 36 -38 28 -39 35 -11 45 17 7 32
27 32 45 0 29 -3 29 -32 -1 -18 -17 -38 -26 -45 -20 -6 7 1 21 18 31 24 15 23
18 -7 19 -20 0 -31 9 -24 20 7 11 4 20 -7 20 -11 0 -24 -11 -29 -25z"/>
<path d="M3012 157 c6 -9 -3 -17 -19 -17 -27 0 -63 -57 -46 -73 39 -40 90 -18
97 41 5 43 -1 65 -18 65 -13 0 -20 -7 -14 -16z"/>
<path d="M21 105 c0 -44 46 -105 78 -105 16 0 20 13 11 35 -8 19 -19 51 -25
70 -5 19 -22 35 -37 35 -16 0 -28 -16 -27 -35z"/>
<path d="M1409 86 c5 -14 1 -26 -9 -26 -10 0 -14 -13 -7 -30 13 -34 67 -41 67
-9 0 12 11 15 23 7 16 -10 20 -3 10 20 -7 20 -13 42 -13 49 0 8 -18 14 -40 14
-25 0 -37 -10 -31 -25z"/>
<path d="M1830 80 c19 -21 28 -47 21 -59 -8 -13 8 -21 43 -21 31 0 46 7 35 15
-12 8 -27 30 -34 47 -6 18 -31 38 -55 44 -41 11 -42 9 -10 -26z"/>
<path d="M3353 107 c-7 -8 -13 -30 -13 -50 0 -39 49 -51 70 -17 7 11 3 20 -8
20 -11 0 -16 14 -9 30 11 30 -15 41 -40 17z"/>
<path d="M5739 91 c-66 -66 -7 -86 67 -23 l55 48 -51 -3 c-29 -2 -60 -12 -71
-22z"/>
<path d="M5923 50 l-47 -50 62 0 c53 0 62 7 62 50 0 63 -17 63 -77 0z"/>
<path d="M3061 31 c-22 -27 -18 -31 28 -31 33 0 51 9 46 24 -12 37 -47 40 -74
7z"/>
</g>
</svg>
